<svg width="28" height="29" viewBox="0 0 28 29" fill="none" xmlns="http://www.w3.org/2000/svg">
<path fill-rule="evenodd" clip-rule="evenodd" d="M18.8 9.81812C18.8 9.83303 18.7137 9.84326 18.5882 9.84326C18.4628 9.84326 18.3765 9.8535 18.3765 9.86841C18.3765 9.88239 18.3137 9.89356 18.2353 9.89356C18.1569 9.89356 18.0941 9.90473 18.0941 9.91871C18.0941 9.93254 18.0518 9.94386 18 9.94386C17.9482 9.94386 17.9059 9.95517 17.9059 9.969C17.9059 9.98284 17.8635 9.99415 17.8118 9.99415C17.76 9.99415 17.7176 10.0055 17.7176 10.0193C17.7176 10.0331 17.6859 10.0444 17.6471 10.0444C17.6082 10.0444 17.5765 10.0558 17.5765 10.0696C17.5765 10.0834 17.5553 10.0947 17.5294 10.0947C17.5035 10.0947 17.4824 10.1061 17.4824 10.1199C17.4824 10.1337 17.4612 10.145 17.4353 10.145C17.4094 10.145 17.3882 10.1564 17.3882 10.1702C17.3882 10.184 17.3671 10.1953 17.3412 10.1953C17.3153 10.1953 17.2941 10.2067 17.2941 10.2205C17.2941 10.2343 17.2729 10.2456 17.2471 10.2456C17.2212 10.2456 17.2 10.2569 17.2 10.2708C17.2 10.2846 17.1812 10.2959 17.1581 10.2959C17.1351 10.2959 17.101 10.3186 17.0824 10.3462C17.0637 10.3739 17.0319 10.3965 17.0118 10.3965C16.9916 10.3965 16.9598 10.4192 16.9412 10.4468C16.9225 10.4745 16.8927 10.4971 16.8748 10.4971C16.857 10.4971 16.8127 10.5311 16.7765 10.5726C16.7402 10.614 16.6987 10.648 16.6843 10.648C16.6475 10.648 16.3059 11.0172 16.3059 11.057C16.3059 11.0749 16.2847 11.1059 16.2588 11.1258C16.2329 11.1458 16.2118 11.1797 16.2118 11.2013C16.2118 11.2228 16.1906 11.2568 16.1647 11.2767C16.1388 11.2966 16.1176 11.3331 16.1176 11.3577C16.1176 11.3823 16.1071 11.4024 16.0941 11.4024C16.0812 11.4024 16.0706 11.4226 16.0706 11.4472C16.0706 11.4718 16.0494 11.5082 16.0235 11.5282C15.9959 11.5495 15.9765 11.5933 15.9765 11.6343C15.9765 11.6728 15.9659 11.7042 15.9529 11.7042C15.94 11.7042 15.9294 11.7268 15.9294 11.7545C15.9294 11.7822 15.9188 11.8048 15.9059 11.8048C15.8929 11.8048 15.8824 11.8388 15.8824 11.8802C15.8824 11.9217 15.8718 11.9557 15.8588 11.9557C15.8459 11.9557 15.8353 12.001 15.8353 12.0563C15.8353 12.1116 15.8247 12.1569 15.8118 12.1569C15.7983 12.1569 15.7882 12.2323 15.7882 12.3329C15.7882 12.4335 15.7781 12.5089 15.7647 12.5089C15.7493 12.5089 15.7412 13.0119 15.7412 13.9675V15.4261H14.8706H14V16.8595V18.293H14.8706H15.7412V22.543V26.793H17.5059H19.2706V22.543V18.293H20.4706H21.6706V18.1924C21.6706 18.1371 21.6812 18.0918 21.6941 18.0918C21.7072 18.0918 21.7176 18.0247 21.7176 17.9409C21.7176 17.8571 21.7281 17.79 21.7412 17.79C21.7543 17.79 21.7647 17.7229 21.7647 17.6391C21.7647 17.5553 21.7752 17.4882 21.7882 17.4882C21.802 17.4882 21.8118 17.4044 21.8118 17.2871C21.8118 17.1697 21.8216 17.0859 21.8353 17.0859C21.849 17.0859 21.8588 17.0021 21.8588 16.8847C21.8588 16.7673 21.8686 16.6835 21.8824 16.6835C21.8965 16.6835 21.9059 16.5829 21.9059 16.432C21.9059 16.2811 21.9153 16.1805 21.9294 16.1805C21.9437 16.1805 21.9529 16.0716 21.9529 15.9039C21.9529 15.7363 21.9622 15.6273 21.9765 15.6273C21.9894 15.6273 22 15.582 22 15.5267V15.4261H20.6588H19.3176V14.395C19.3176 13.7244 19.3259 13.364 19.3412 13.364C19.3541 13.364 19.3647 13.3468 19.3647 13.3258C19.3647 13.2761 19.6589 12.9616 19.7054 12.9616C19.7251 12.9616 19.7412 12.9503 19.7412 12.9365C19.7412 12.9226 19.7729 12.9113 19.8118 12.9113C19.8506 12.9113 19.8824 12.9 19.8824 12.8862C19.8824 12.8698 20.251 12.861 20.9412 12.861H22V11.327V9.79297H20.4C19.349 9.79297 18.8 9.80159 18.8 9.81812Z" fill="#38AE00"/>
<rect x="1" y="1.79297" width="26" height="26" rx="3" stroke="#38AE00" stroke-width="2"/>
</svg>
