<svg width="47" height="46" viewBox="0 0 47 46" fill="none" xmlns="http://www.w3.org/2000/svg">
<path fill-rule="evenodd" clip-rule="evenodd" d="M22.4742 0.0473251C22.4742 0.0733539 22.4424 0.0946502 22.4034 0.0946502C22.3107 0.0946502 10.1984 12.2353 10.1984 12.3281C10.1984 12.3672 10.1771 12.3992 10.1512 12.3992C10.1249 12.3992 10.104 12.5254 10.104 12.6831C10.104 12.8409 10.1249 12.9671 10.1512 12.9671C10.1771 12.9671 10.1984 12.9991 10.1984 13.0383C10.1984 13.1248 12.2974 15.2387 12.3832 15.2387C12.4165 15.2387 12.4745 15.2813 12.5119 15.3333C12.6235 15.4885 12.9368 15.4211 12.9368 15.2419C12.9368 15.214 15.6989 12.4227 19.0748 9.03909C23.9574 4.14521 25.2127 2.86288 25.2127 2.76866C25.2127 2.70349 25.2339 2.65021 25.2599 2.65021C25.2859 2.65021 25.3071 2.60761 25.3071 2.55556C25.3071 2.5035 25.2859 2.46091 25.2599 2.46091C25.2339 2.46091 25.2127 2.42887 25.2127 2.38968C25.2127 2.3505 24.6922 1.79679 24.0562 1.15923L22.8996 0H22.6869C22.5699 0 22.4742 0.0212963 22.4742 0.0473251ZM21.1168 10.865C16.1758 15.8253 16.1474 15.8549 16.1474 16.0436C16.1474 16.2303 16.1771 16.2632 17.9888 18.0782C19.0016 19.0928 19.8302 19.9452 19.8302 19.9723C19.8302 20.0371 19.5174 20.3498 19.4527 20.3498C19.425 20.3498 19.1488 20.6054 18.8387 20.9177C18.5286 21.23 18.2524 21.4856 18.225 21.4856C18.1976 21.4856 17.9001 21.7624 17.5639 22.1008C17.2277 22.4392 16.9302 22.716 16.9028 22.716C16.8754 22.716 16.5992 22.9716 16.2891 23.284C15.979 23.5963 15.7028 23.8519 15.6754 23.8519C15.648 23.8519 15.3505 24.1287 15.0143 24.4671C14.6781 24.8055 14.3806 25.0823 14.3532 25.0823C14.3258 25.0823 14.0496 25.3379 13.7395 25.6502C13.4294 25.9626 13.1532 26.2181 13.1257 26.2181C13.0982 26.2181 12.822 26.4737 12.5119 26.786C12.2018 27.0984 11.9256 27.3539 11.8982 27.3539C11.8708 27.3539 11.5733 27.6308 11.2371 27.9691C10.9009 28.3075 10.6034 28.5844 10.576 28.5844C10.5486 28.5844 10.2724 28.8399 9.96231 29.1523C9.65221 29.4646 9.37605 29.7202 9.34861 29.7202C9.32118 29.7202 9.02368 29.997 8.68751 30.3354C8.35134 30.6738 8.05384 30.9506 8.02641 30.9506C7.99898 30.9506 7.72282 31.2062 7.41271 31.5185C7.10261 31.8309 6.8264 32.0864 6.79892 32.0864C6.77144 32.0864 6.49524 32.342 6.18513 32.6543C5.87503 32.9667 5.59887 33.2222 5.57143 33.2222C5.544 33.2222 5.2465 33.4991 4.91033 33.8374C4.57416 34.1758 4.27666 34.4527 4.24923 34.4527C4.2218 34.4527 3.94564 34.7082 3.63554 35.0206C3.32543 35.3329 3.04927 35.5885 3.02184 35.5885C2.99441 35.5885 2.69691 35.8653 2.36074 36.2037C2.02457 36.5421 1.72749 36.8189 1.70053 36.8189C1.62287 36.8189 0.472147 37.9933 0.472147 38.0726C0.472147 38.1119 0.450901 38.144 0.424933 38.144C0.398965 38.144 0.377718 38.1866 0.377718 38.2387C0.377718 38.2907 0.356471 38.3333 0.330503 38.3333C0.304535 38.3333 0.283288 38.3759 0.283288 38.428C0.283288 38.48 0.262042 38.5226 0.236074 38.5226C0.210106 38.5226 0.188859 38.5865 0.188859 38.6646C0.188859 38.7427 0.167612 38.8066 0.141644 38.8066C0.115676 38.8066 0.0944295 38.9131 0.0944295 39.0432C0.0944295 39.1734 0.0731829 39.2798 0.0472147 39.2798C0.0209633 39.2798 0 39.4061 0 39.5638C0 39.7215 0.0209633 39.8477 0.0472147 39.8477C0.0731829 39.8477 0.0944295 39.9542 0.0944295 40.0844C0.0944295 40.2145 0.115676 40.321 0.141644 40.321C0.167612 40.321 0.188859 40.4062 0.188859 40.5103C0.188859 40.6144 0.210106 40.6996 0.236074 40.6996C0.262042 40.6996 0.283288 40.7422 0.283288 40.7942C0.283288 40.8463 0.304535 40.8889 0.330503 40.8889C0.356471 40.8889 0.377718 40.9315 0.377718 40.9835C0.377718 41.0356 0.398965 41.0782 0.424933 41.0782C0.450901 41.0782 0.472147 41.1122 0.472147 41.1539C0.472147 41.1955 0.535887 41.2892 0.613792 41.3621C0.691696 41.4351 0.755436 41.5189 0.755436 41.5484C0.755436 41.618 1.06672 41.93 1.13622 41.93C1.16564 41.93 1.24925 41.9939 1.32201 42.072C1.39477 42.1501 1.4883 42.214 1.52981 42.214C1.57135 42.214 1.6053 42.2353 1.6053 42.2613C1.6053 42.2873 1.64779 42.3086 1.69973 42.3086C1.75167 42.3086 1.79416 42.3299 1.79416 42.356C1.79416 42.382 1.83665 42.4033 1.88859 42.4033C1.94053 42.4033 1.98302 42.4246 1.98302 42.4506C1.98302 42.4766 2.04676 42.4979 2.12466 42.4979C2.20257 42.4979 2.26631 42.5192 2.26631 42.5453C2.26631 42.5713 2.35129 42.5926 2.45517 42.5926C2.55904 42.5926 2.64403 42.6139 2.64403 42.6399C2.64403 42.668 2.81716 42.6872 3.06896 42.6872C3.32075 42.6872 3.49389 42.668 3.49389 42.6399C3.49389 42.6139 3.57888 42.5926 3.68275 42.5926C3.78662 42.5926 3.87161 42.5713 3.87161 42.5453C3.87161 42.5192 3.93535 42.4979 4.01325 42.4979C4.09116 42.4979 4.1549 42.4766 4.1549 42.4506C4.1549 42.4246 4.19739 42.4033 4.24933 42.4033C4.30126 42.4033 4.34376 42.382 4.34376 42.356C4.34376 42.3299 4.38625 42.3086 4.43819 42.3086C4.49012 42.3086 4.53262 42.2873 4.53262 42.2613C4.53262 42.2353 4.56463 42.214 4.60377 42.214C4.68266 42.214 6.32678 40.5873 6.32678 40.5093C6.32678 40.4823 6.58174 40.2059 6.89335 39.8951C7.20497 39.5842 7.45993 39.3074 7.45993 39.2799C7.45993 39.2524 7.73614 38.9542 8.07372 38.6173C8.41131 38.2803 8.68751 37.9821 8.68751 37.9546C8.68751 37.9271 8.94247 37.6503 9.25409 37.3395C9.56571 37.0287 9.82067 36.7519 9.82067 36.7244C9.82067 36.6969 10.0969 36.3987 10.4345 36.0617C10.772 35.7248 11.0483 35.4266 11.0483 35.3991C11.0483 35.3716 11.3032 35.0948 11.6148 34.784C11.9264 34.4731 12.1814 34.1963 12.1814 34.1688C12.1814 34.1413 12.4576 33.8431 12.7952 33.5062C13.1328 33.1692 13.409 32.871 13.409 32.8435C13.409 32.816 13.6639 32.5392 13.9756 32.2284C14.2872 31.9176 14.5421 31.6407 14.5421 31.6132C14.5421 31.5856 14.7971 31.3088 15.1087 30.9979C15.4203 30.6871 15.6753 30.4103 15.6753 30.3828C15.6753 30.3553 15.9515 30.0571 16.2891 29.7202C16.6267 29.3832 16.9029 29.085 16.9029 29.0575C16.9029 29.03 17.1578 28.7532 17.4695 28.4424C17.7811 28.1316 18.036 27.8548 18.036 27.8273C18.036 27.7998 18.3122 27.5016 18.6498 27.1646C18.9874 26.8277 19.2636 26.5295 19.2636 26.502C19.2636 26.4745 19.5186 26.1977 19.8302 25.8868C20.1418 25.576 20.3968 25.2992 20.3968 25.2717C20.3968 25.2442 20.673 24.946 21.0106 24.6091C21.3481 24.2721 21.6244 23.9743 21.6244 23.9473C21.6244 23.9203 21.8687 23.6533 22.1673 23.3539L22.7102 22.8097L24.4568 24.5613C26.1741 26.2836 26.2064 26.3128 26.3928 26.3128C26.5775 26.3128 26.6124 26.2827 27.7389 25.1535C28.375 24.516 28.8954 23.9726 28.8954 23.946C28.8954 23.9195 29.4053 23.3873 30.0286 22.7634C30.6518 22.1395 31.1617 21.607 31.1617 21.5802C31.1617 21.5534 31.6504 21.0423 32.2477 20.4444C32.8449 19.8466 33.3336 19.3355 33.3336 19.3087C33.3336 19.2819 33.8435 18.7494 34.4668 18.1255C35.09 17.5016 35.5999 16.9691 35.5999 16.9422C35.5999 16.865 36.2039 16.2798 36.2836 16.2798C36.3358 16.2798 36.3554 16.2283 36.3554 16.0905C36.3554 15.9864 36.3341 15.9012 36.3081 15.9012C36.2822 15.9012 36.2609 15.8692 36.2609 15.8302C36.2609 15.7911 34.0407 13.5337 31.327 10.8137C26.7515 6.22751 26.382 5.8686 26.2396 5.87224C26.1005 5.87579 25.6199 6.34417 21.1168 10.865ZM39.7548 17.179C39.7548 17.205 39.7017 17.2263 39.6367 17.2263C39.5429 17.2263 38.2561 18.4918 33.3572 23.4022L27.1957 29.5781V29.8384C27.1957 29.9816 27.2169 30.0988 27.2429 30.0988C27.2689 30.0988 27.2901 30.1308 27.2901 30.17C27.2901 30.2092 27.7681 30.7203 28.3522 31.3058C29.1522 32.1077 29.4425 32.3704 29.5286 32.3704C29.5915 32.3704 29.6554 32.397 29.6705 32.4295C29.6926 32.4769 29.7036 32.4769 29.7256 32.4295C29.7408 32.397 29.8151 32.3704 29.8909 32.3704C29.9666 32.3704 30.0286 32.3491 30.0286 32.323C30.0286 32.297 30.0604 32.2757 30.0994 32.2757C30.1921 32.2757 42.3044 20.1351 42.3044 20.0422C42.3044 20.0031 42.3257 19.9712 42.3516 19.9712C42.3776 19.9712 42.3988 19.8753 42.3988 19.758V19.5448L41.2423 18.3856C40.6062 17.748 40.0538 17.2263 40.0147 17.2263C39.9756 17.2263 39.9437 17.205 39.9437 17.179C39.9437 17.153 39.9012 17.1317 39.8492 17.1317C39.7973 17.1317 39.7548 17.153 39.7548 17.179ZM24.6461 41.2202C24.6461 41.2462 24.6135 41.2675 24.5737 41.2675C24.4547 41.2675 24.174 41.5822 24.174 41.7155C24.174 41.7814 24.1527 41.8354 24.1267 41.8354C24.0961 41.8354 24.0795 42.4506 24.0795 43.5864C24.0795 44.7222 24.0961 45.3375 24.1267 45.3375C24.1527 45.3375 24.174 45.38 24.174 45.4321C24.174 45.4842 24.1952 45.5267 24.2212 45.5267C24.2471 45.5267 24.2684 45.5596 24.2684 45.5999C24.2684 45.6946 24.4787 45.9053 24.5732 45.9053C24.6133 45.9053 24.6461 45.9266 24.6461 45.9527C24.6461 45.9841 28.1872 46 35.175 46C42.1628 46 45.7039 45.9841 45.7039 45.9527C45.7039 45.9266 45.7367 45.9053 45.7768 45.9053C45.817 45.9053 45.9019 45.8531 45.9657 45.7892L46.0816 45.673V43.7069C46.0816 42.4277 46.0651 41.7407 46.0344 41.7407C46.0084 41.7407 45.9872 41.7081 45.9872 41.6682C45.9872 41.574 45.6814 41.2675 45.5874 41.2675C45.5476 41.2675 45.515 41.2462 45.515 41.2202C45.515 41.1887 42.0054 41.1728 35.0806 41.1728C28.1557 41.1728 24.6461 41.1887 24.6461 41.2202Z" fill="white"/>
</svg>
