<svg width="28" height="28" viewBox="0 0 28 28" fill="none" xmlns="http://www.w3.org/2000/svg">
<g id="phone_24px">
<path id="icon/communication/phone_24px" fill-rule="evenodd" clip-rule="evenodd" d="M4.66667 3.5H8.75C9.39167 3.5 9.91667 4.025 9.91667 4.66667C9.91667 6.125 10.15 7.525 10.5817 8.83167C10.71 9.24 10.6167 9.695 10.29 10.0217L7.72333 12.5883C9.40333 15.89 12.11 18.585 15.4117 20.2767L17.9783 17.71C18.2117 17.4883 18.5033 17.3717 18.8067 17.3717C18.9233 17.3717 19.0517 17.3833 19.1683 17.43C20.475 17.8617 21.8867 18.095 23.3333 18.095C23.975 18.095 24.5 18.62 24.5 19.2617V23.3333C24.5 23.975 23.975 24.5 23.3333 24.5C12.3783 24.5 3.5 15.6217 3.5 4.66667C3.5 4.025 4.025 3.5 4.66667 3.5ZM7.63005 5.83333C7.70005 6.87167 7.87505 7.88667 8.15505 8.855L6.75505 10.255C6.27672 8.855 5.97339 7.37333 5.86839 5.83333H7.63005ZM19.1332 19.8567C20.1249 20.1367 21.1399 20.3117 22.1666 20.3817V22.12C20.6266 22.015 19.1449 21.7117 17.7332 21.245L19.1332 19.8567Z" fill="#38AE00"/>
</g>
</svg>
