<svg width="64" height="36" viewBox="0 0 64 36" fill="none" xmlns="http://www.w3.org/2000/svg">
<path fill-rule="evenodd" clip-rule="evenodd" d="M24.5937 0.0614298C24.5937 0.0994549 24.9213 0.12286 25.4537 0.12286C25.9861 0.12286 26.3138 0.146264 26.3138 0.184289C26.3138 0.218076 26.4243 0.245719 26.5595 0.245719C26.6946 0.245719 26.8052 0.218076 26.8052 0.184289C26.8052 0.150503 26.8881 0.12286 26.9895 0.12286C27.0908 0.12286 27.1738 0.150503 27.1738 0.184289C27.1738 0.220717 27.399 0.245719 27.7266 0.245719C28.0542 0.245719 28.2795 0.270721 28.2795 0.307149C28.2795 0.396345 28.6313 0.382646 28.6737 0.291792C28.7023 0.230362 28.7167 0.230362 28.7453 0.291792C28.769 0.342348 28.9262 0.368579 29.2061 0.368579C29.4484 0.368579 29.631 0.394994 29.631 0.430009C29.631 0.519205 29.9827 0.505506 30.0252 0.414651C30.0538 0.353221 30.0682 0.353221 30.0968 0.414651C30.1204 0.465208 30.2777 0.491438 30.5575 0.491438C30.7998 0.491438 30.9824 0.517853 30.9824 0.552868C30.9824 0.641511 31.2112 0.628611 31.2537 0.537511C31.2824 0.476081 31.2968 0.476081 31.3254 0.537511C31.3469 0.583645 31.4817 0.614298 31.6632 0.614298C31.8294 0.614298 31.9653 0.641941 31.9653 0.675728C31.9653 0.711541 32.17 0.737158 32.4567 0.737158C32.7434 0.737158 32.9482 0.762774 32.9482 0.798588C32.9482 0.832374 33.0564 0.860017 33.1888 0.860017C33.3212 0.860017 33.4455 0.894541 33.4652 0.936805C33.4939 0.998234 33.5082 0.998234 33.5369 0.936805C33.5794 0.845704 33.8082 0.832804 33.8082 0.921447C33.8082 0.955602 33.972 0.982877 34.1768 0.982877C34.3815 0.982877 34.5453 1.01015 34.5453 1.04431C34.5453 1.07809 34.6536 1.10574 34.786 1.10574C34.9209 1.10574 35.0402 1.13946 35.0577 1.18252C35.0812 1.24051 35.1062 1.23677 35.1596 1.16717C35.2131 1.09757 35.2381 1.09382 35.2616 1.15181C35.2787 1.19407 35.3711 1.2286 35.4668 1.2286C35.5625 1.2286 35.6549 1.26318 35.672 1.30538C35.6955 1.36337 35.7205 1.35963 35.7739 1.29003C35.8274 1.22043 35.8524 1.21668 35.8759 1.27467C35.893 1.31693 35.9877 1.35146 36.0862 1.35146C36.1847 1.35146 36.2654 1.3791 36.2654 1.41289C36.2654 1.44667 36.4013 1.47432 36.5674 1.47432C36.7515 1.47432 36.8816 1.50429 36.9006 1.5511C36.9241 1.60909 36.9491 1.60535 37.0025 1.53575C37.056 1.46615 37.081 1.4624 37.1044 1.52039C37.1216 1.56265 37.214 1.59718 37.3097 1.59718C37.4054 1.59718 37.4978 1.63176 37.5149 1.67396C37.5384 1.73195 37.5634 1.7282 37.6168 1.6586C37.6703 1.589 37.6953 1.58526 37.7187 1.64325C37.7359 1.68551 37.8006 1.72003 37.8626 1.72003C37.9245 1.72003 37.9892 1.75462 38.0064 1.79682C38.0298 1.85481 38.0548 1.85106 38.1083 1.78146C38.1617 1.71186 38.1867 1.70812 38.2102 1.76611C38.2273 1.80831 38.2943 1.84289 38.3591 1.84289C38.4238 1.84289 38.4769 1.87054 38.4769 1.90432C38.4769 1.93811 38.5874 1.96575 38.7226 1.96575C38.8577 1.96575 38.9683 1.9934 38.9683 2.02718C38.9683 2.06097 39.0789 2.08861 39.214 2.08861C39.3492 2.08861 39.4597 2.11626 39.4597 2.15004C39.4597 2.18383 39.5427 2.21147 39.644 2.21147C39.7454 2.21147 39.8283 2.23912 39.8283 2.2729C39.8283 2.30669 39.9389 2.33433 40.074 2.33433C40.2092 2.33433 40.3197 2.36198 40.3197 2.39576C40.3197 2.42955 40.4027 2.45719 40.504 2.45719C40.6054 2.45719 40.6883 2.48484 40.6883 2.51862C40.6883 2.55241 40.7436 2.58005 40.8112 2.58005C40.8788 2.58005 40.934 2.6077 40.934 2.64148C40.934 2.67527 41.0385 2.70291 41.1662 2.70291C41.3279 2.70291 41.4252 2.7402 41.4869 2.82577C41.5389 2.89789 41.646 2.94863 41.7462 2.94863C41.8401 2.94863 41.9169 2.97627 41.9169 3.01006C41.9169 3.04385 41.9722 3.07149 42.0398 3.07149C42.1074 3.07149 42.1626 3.09913 42.1626 3.13292C42.1626 3.16671 42.2456 3.19435 42.3469 3.19435C42.4483 3.19435 42.5312 3.22199 42.5312 3.25578C42.5312 3.28957 42.5865 3.31721 42.6541 3.31721C42.7217 3.31721 42.7769 3.34485 42.7769 3.37864C42.7769 3.41243 42.8322 3.44007 42.8998 3.44007C42.9674 3.44007 43.0227 3.46771 43.0227 3.5015C43.0227 3.53529 43.0719 3.56293 43.1319 3.56293C43.1921 3.56293 43.2811 3.61822 43.3298 3.68579C43.3785 3.75336 43.4675 3.80865 43.5277 3.80865C43.5877 3.80865 43.637 3.83629 43.637 3.87008C43.637 3.90386 43.6862 3.93151 43.7462 3.93151C43.8064 3.93151 43.8954 3.98679 43.9441 4.05437C43.9928 4.12194 44.0818 4.17723 44.142 4.17723C44.202 4.17723 44.2513 4.20487 44.2513 4.23866C44.2513 4.27244 44.3065 4.30009 44.3741 4.30009C44.4417 4.30009 44.497 4.32773 44.497 4.36152C44.497 4.3953 44.5462 4.42295 44.6063 4.42295C44.6664 4.42295 44.7554 4.47823 44.8041 4.54581C44.8528 4.61338 44.9358 4.66867 44.9884 4.66867C45.0411 4.66867 45.124 4.72395 45.1727 4.79152C45.2214 4.8591 45.3043 4.91438 45.357 4.91438C45.4096 4.91438 45.4926 4.96967 45.5413 5.03724C45.59 5.10482 45.6679 5.1601 45.7145 5.1601C45.761 5.1601 45.8766 5.24303 45.9713 5.34439C46.066 5.44575 46.1816 5.52868 46.2281 5.52868C46.2746 5.52868 46.3526 5.58397 46.4013 5.65154C46.45 5.71911 46.539 5.7744 46.5992 5.7744C46.6592 5.7744 46.7084 5.80205 46.7084 5.83583C46.7084 5.86962 46.7521 5.89726 46.8054 5.89726C46.8588 5.89726 47.0086 6.00783 47.1385 6.14298C47.2683 6.27813 47.4121 6.3887 47.4579 6.3887C47.5038 6.3887 47.5812 6.44399 47.6299 6.51156C47.6786 6.57913 47.7566 6.63442 47.8031 6.63442C47.8496 6.63442 47.9652 6.71735 48.0599 6.81871C48.1546 6.92007 48.2763 7.003 48.3303 7.003C48.3843 7.003 48.4285 7.03064 48.4285 7.06443C48.4285 7.09821 48.4726 7.12586 48.5267 7.12586C48.5807 7.12586 48.7024 7.20879 48.7971 7.31015C48.8917 7.41151 49.0073 7.49444 49.0538 7.49444C49.1004 7.49444 49.1784 7.54972 49.2271 7.6173C49.2758 7.68487 49.3537 7.74016 49.4003 7.74016C49.4468 7.74016 49.5624 7.82309 49.6571 7.92445C49.7517 8.0258 49.8673 8.10873 49.9139 8.10873C49.9604 8.10873 50.0384 8.16402 50.0871 8.23159C50.1358 8.29917 50.2187 8.35445 50.2714 8.35445C50.324 8.35445 50.4069 8.40974 50.4557 8.47731C50.5044 8.54489 50.5873 8.60017 50.64 8.60017C50.6926 8.60017 50.7755 8.65546 50.8242 8.72303C50.873 8.79061 50.9559 8.84589 51.0085 8.84589C51.0612 8.84589 51.1441 8.90118 51.1928 8.96875C51.2415 9.03632 51.3245 9.09161 51.3771 9.09161C51.4298 9.09161 51.5127 9.1469 51.5614 9.21447C51.6101 9.28204 51.6991 9.33733 51.7593 9.33733C51.8193 9.33733 51.8685 9.36497 51.8685 9.39876C51.8685 9.43255 51.9238 9.46019 51.9914 9.46019C52.059 9.46019 52.1143 9.48783 52.1143 9.52162C52.1143 9.55541 52.1696 9.58305 52.2371 9.58305C52.3047 9.58305 52.36 9.61069 52.36 9.64448C52.36 9.67827 52.4153 9.70591 52.4828 9.70591C52.5504 9.70591 52.6057 9.73355 52.6057 9.76734C52.6057 9.80113 52.661 9.82877 52.7286 9.82877C52.7961 9.82877 52.8514 9.85641 52.8514 9.8902C52.8514 9.92399 52.9067 9.95163 52.9743 9.95163C53.0419 9.95163 53.0971 9.97927 53.0971 10.0131C53.0971 10.0468 53.1524 10.0745 53.22 10.0745C53.2876 10.0745 53.3429 10.1021 53.3429 10.1359C53.3429 10.1697 53.3982 10.1973 53.4657 10.1973C53.5333 10.1973 53.5886 10.225 53.5886 10.2588C53.5886 10.2926 53.6992 10.3202 53.8343 10.3202C53.9694 10.3202 54.08 10.3479 54.08 10.3816C54.08 10.4154 54.1353 10.4431 54.2029 10.4431C54.2705 10.4431 54.3257 10.4154 54.3257 10.3816C54.3257 10.3452 54.551 10.3202 54.8786 10.3202C55.2062 10.3202 55.4315 10.3452 55.4315 10.3816C55.4315 10.4154 55.5144 10.4431 55.6158 10.4431C55.7171 10.4431 55.8001 10.4154 55.8001 10.3816C55.8001 10.3448 56.0458 10.3202 56.4144 10.3202C56.7829 10.3202 57.0287 10.2956 57.0287 10.2588C57.0287 10.225 57.1392 10.1973 57.2744 10.1973C57.4095 10.1973 57.5201 10.225 57.5201 10.2588C57.5201 10.2926 57.5754 10.3202 57.643 10.3202C57.7105 10.3202 57.7658 10.2926 57.7658 10.2588C57.7658 10.2219 58.0115 10.1973 58.3801 10.1973C58.7487 10.1973 58.9944 10.1728 58.9944 10.1359C58.9944 10.1021 59.105 10.0745 59.2401 10.0745C59.3753 10.0745 59.4858 10.1021 59.4858 10.1359C59.4858 10.1697 59.5411 10.1973 59.6087 10.1973C59.6763 10.1973 59.7316 10.1697 59.7316 10.1359C59.7316 10.0383 62.7843 10.0534 62.824 10.1513C62.848 10.2104 62.8689 10.2083 62.915 10.1423C62.964 10.0723 63.0043 10.0859 63.1347 10.2163C63.3265 10.4081 63.3355 10.5092 63.1716 10.6274C63.1041 10.6761 63.0488 10.7522 63.0488 10.7965C63.0488 10.894 62.6503 11.3031 62.5554 11.3031C62.5183 11.3031 62.3533 11.4413 62.1888 11.6102C62.0242 11.7792 61.8574 11.9174 61.8181 11.9174C61.7788 11.9174 61.6691 12.0003 61.5745 12.1017C61.4798 12.203 61.3692 12.286 61.3287 12.286C61.2883 12.286 61.1777 12.3689 61.083 12.4703C60.9884 12.5716 60.8727 12.6545 60.8262 12.6545C60.7797 12.6545 60.7017 12.7098 60.653 12.7774C60.6043 12.845 60.5153 12.9003 60.4551 12.9003C60.3951 12.9003 60.3459 12.9279 60.3459 12.9617C60.3459 12.9955 60.2906 13.0231 60.223 13.0231C60.1554 13.0231 60.1001 13.0508 60.1001 13.0845C60.1001 13.1183 60.0509 13.146 59.9909 13.146C59.9307 13.146 59.8417 13.2013 59.793 13.2688C59.7443 13.3364 59.6553 13.3917 59.5951 13.3917C59.535 13.3917 59.4858 13.4193 59.4858 13.4531C59.4858 13.4869 59.4306 13.5146 59.363 13.5146C59.2954 13.5146 59.2401 13.5422 59.2401 13.576C59.2401 13.6098 59.1572 13.6374 59.0558 13.6374C58.9545 13.6374 58.8715 13.6651 58.8715 13.6988C58.8715 13.7326 58.8163 13.7603 58.7487 13.7603C58.6811 13.7603 58.6258 13.7879 58.6258 13.8217C58.6258 13.8555 58.5705 13.8831 58.503 13.8831C58.4354 13.8831 58.3801 13.9108 58.3801 13.9446C58.3801 13.9784 58.2972 14.006 58.1958 14.006C58.0945 14.006 58.0115 14.0336 58.0115 14.0674C58.0115 14.1012 57.9286 14.1289 57.8272 14.1289C57.7259 14.1289 57.643 14.1565 57.643 14.1903C57.643 14.2241 57.5877 14.2517 57.5201 14.2517C57.4525 14.2517 57.3972 14.2794 57.3972 14.3131C57.3972 14.3469 57.3538 14.3746 57.3007 14.3746C57.1766 14.3746 57.0287 14.5225 57.0287 14.6466C57.0287 14.6997 57.001 14.7432 56.9672 14.7432C56.9314 14.7432 56.9058 14.9479 56.9058 15.2346C56.9058 15.5213 56.9314 15.726 56.9672 15.726C57.001 15.726 57.0287 15.8029 57.0287 15.8967C57.0287 15.997 57.0794 16.104 57.1515 16.156C57.2191 16.2048 57.2744 16.2877 57.2744 16.3403C57.2744 16.393 57.3297 16.4759 57.3972 16.5246C57.4648 16.5733 57.5201 16.6563 57.5201 16.7089C57.5201 16.7616 57.5754 16.8445 57.643 16.8932C57.7151 16.9452 57.7658 17.0522 57.7658 17.1525C57.7658 17.2464 57.7935 17.3232 57.8272 17.3232C57.861 17.3232 57.8887 17.3785 57.8887 17.4461C57.8887 17.5136 57.9163 17.5689 57.9501 17.5689C57.9839 17.5689 58.0115 17.6242 58.0115 17.6918C58.0115 17.7594 58.0392 17.8146 58.073 17.8146C58.1067 17.8146 58.1344 17.8699 58.1344 17.9375C58.1344 18.0051 58.162 18.0604 58.1958 18.0604C58.2296 18.0604 58.2572 18.1157 58.2572 18.1832C58.2572 18.2508 58.2849 18.3061 58.3187 18.3061C58.3525 18.3061 58.3801 18.3482 58.3801 18.3996C58.3801 18.5212 59.025 19.1661 59.1466 19.1661C59.198 19.1661 59.2401 19.1937 59.2401 19.2275C59.2401 19.2613 59.3231 19.289 59.4244 19.289C59.5258 19.289 59.6087 19.3166 59.6087 19.3504C59.6087 19.3842 59.664 19.4118 59.7316 19.4118C59.7991 19.4118 59.8544 19.3842 59.8544 19.3504C59.8544 19.2593 60.4513 19.2737 60.4943 19.3657C60.523 19.4272 60.5373 19.4272 60.566 19.3657C60.5875 19.3196 60.7223 19.289 60.9038 19.289C61.0699 19.289 61.2059 19.2613 61.2059 19.2275C61.2059 19.1934 61.3697 19.1661 61.5745 19.1661C61.9021 19.1661 61.943 19.1797 61.943 19.289C61.943 19.3565 61.9707 19.4118 62.0045 19.4118C62.0383 19.4118 62.0659 19.55 62.0659 19.719C62.0659 19.8879 62.0383 20.0261 62.0045 20.0261C61.9707 20.0261 61.943 20.109 61.943 20.2104C61.943 20.3118 61.9154 20.3947 61.8816 20.3947C61.8478 20.3947 61.8202 20.4754 61.8202 20.5739C61.8202 20.6724 61.7856 20.7671 61.7434 20.7842C61.6854 20.8077 61.6891 20.8327 61.7587 20.8861C61.8283 20.9396 61.8321 20.9646 61.7741 20.988C61.7318 21.0052 61.6973 21.0722 61.6973 21.137C61.6973 21.2017 61.6697 21.2547 61.6359 21.2547C61.6021 21.2547 61.5745 21.3653 61.5745 21.5004C61.5745 21.6356 61.5468 21.7462 61.513 21.7462C61.4792 21.7462 61.4516 21.7888 61.4516 21.8411C61.4516 21.964 61.178 22.2376 61.0551 22.2376C61.0029 22.2376 60.9602 22.2652 60.9602 22.299C60.9602 22.3328 60.911 22.3604 60.8509 22.3604C60.7907 22.3604 60.7017 22.4157 60.653 22.4833C60.6043 22.5509 60.5153 22.6062 60.4551 22.6062C60.3951 22.6062 60.3459 22.6338 60.3459 22.6676C60.3459 22.7014 60.2906 22.729 60.223 22.729C60.1554 22.729 60.1001 22.7567 60.1001 22.7905C60.1001 22.8242 60.0449 22.8519 59.9773 22.8519C59.9097 22.8519 59.8544 22.8795 59.8544 22.9133C59.8544 22.9471 59.7438 22.9747 59.6087 22.9747C59.4736 22.9747 59.363 23.0024 59.363 23.0362C59.363 23.0726 59.1377 23.0976 58.8101 23.0976C58.4825 23.0976 58.2572 23.1226 58.2572 23.159C58.2572 23.2477 58.0284 23.2348 57.9859 23.1437C57.9573 23.0822 57.9429 23.0822 57.9143 23.1437C57.8946 23.1859 57.7978 23.2205 57.6993 23.2205C57.6007 23.2205 57.5201 23.2481 57.5201 23.2819C57.5201 23.3157 57.4095 23.3433 57.2744 23.3433C57.1392 23.3433 57.0287 23.371 57.0287 23.4048C57.0287 23.4385 56.8904 23.4662 56.7215 23.4662C56.5526 23.4662 56.4144 23.4938 56.4144 23.5276C56.4144 23.5614 56.2761 23.589 56.1072 23.589C55.9383 23.589 55.8001 23.6167 55.8001 23.6505C55.8001 23.6846 55.6362 23.7119 55.4315 23.7119C55.2267 23.7119 55.0629 23.7392 55.0629 23.7733C55.0629 23.8071 54.927 23.8348 54.7608 23.8348C54.5793 23.8348 54.4445 23.8654 54.423 23.9116C54.3944 23.973 54.38 23.973 54.3514 23.9116C54.3088 23.8205 54.08 23.8076 54.08 23.8962C54.08 23.9303 53.9162 23.9576 53.7114 23.9576C53.5067 23.9576 53.3429 23.9849 53.3429 24.0191C53.3429 24.0528 53.2876 24.0805 53.22 24.0805C53.1524 24.0805 53.0971 24.0528 53.0971 24.0191C53.0971 23.9853 53.0419 23.9576 52.9743 23.9576C52.9067 23.9576 52.8514 23.9853 52.8514 24.0191C52.8514 24.0549 52.6467 24.0805 52.36 24.0805C52.0733 24.0805 51.8685 24.1061 51.8685 24.1419C51.8685 24.1757 51.7856 24.2033 51.6843 24.2033C51.5829 24.2033 51.5 24.1757 51.5 24.1419C51.5 24.1081 51.417 24.0805 51.3157 24.0805C51.2143 24.0805 51.1314 24.1081 51.1314 24.1419C51.1314 24.1801 50.7833 24.2033 50.2099 24.2033C49.6366 24.2033 49.2885 24.2266 49.2885 24.2648C49.2885 24.3032 48.9199 24.3262 48.3056 24.3262C47.6913 24.3262 47.3227 24.3032 47.3227 24.2648C47.3227 24.2279 47.077 24.2033 46.7084 24.2033C46.1351 24.2033 46.0941 24.1952 46.0941 24.0805C46.0941 24.0129 46.1218 23.9576 46.1556 23.9576C46.1894 23.9576 46.217 23.9023 46.217 23.8348C46.217 23.7672 46.2446 23.7119 46.2784 23.7119C46.3122 23.7119 46.3399 23.6566 46.3399 23.589C46.3399 23.5215 46.3675 23.4662 46.4013 23.4662C46.4351 23.4662 46.4627 23.4109 46.4627 23.3433C46.4627 23.2758 46.4904 23.2205 46.5242 23.2205C46.5579 23.2205 46.5856 23.1436 46.5856 23.0498C46.5856 22.9495 46.6363 22.8425 46.7084 22.7905C46.7806 22.7384 46.8313 22.6314 46.8313 22.5312C46.8313 22.4373 46.8589 22.3604 46.8927 22.3604C46.9265 22.3604 46.9542 22.2775 46.9542 22.1762C46.9542 22.0748 46.9818 21.9919 47.0156 21.9919C47.0494 21.9919 47.077 21.9089 47.077 21.8076C47.077 21.7062 47.1047 21.6233 47.1385 21.6233C47.1722 21.6233 47.1999 21.5127 47.1999 21.3776C47.1999 21.2424 47.1722 21.1319 47.1385 21.1319C47.1047 21.1319 47.077 21.0766 47.077 21.009C47.077 20.9414 47.062 20.8861 47.0435 20.8861C46.9688 20.8861 46.7084 21.1942 46.7084 21.2827C46.7084 21.3349 46.6808 21.3776 46.647 21.3776C46.6132 21.3776 46.5856 21.4268 46.5856 21.4869C46.5856 21.547 46.5303 21.636 46.4627 21.6847C46.3952 21.7334 46.3399 21.8224 46.3399 21.8826C46.3399 21.9427 46.3122 21.9919 46.2784 21.9919C46.2446 21.9919 46.217 22.0411 46.217 22.1012C46.217 22.1613 46.1617 22.2503 46.0941 22.299C46.0266 22.3477 45.9713 22.4307 45.9713 22.4833C45.9713 22.536 45.916 22.6189 45.8484 22.6676C45.7809 22.7163 45.7256 22.7992 45.7256 22.8519C45.7256 22.9045 45.6703 22.9875 45.6027 23.0362C45.5351 23.0849 45.4798 23.1678 45.4798 23.2205C45.4798 23.2731 45.4246 23.356 45.357 23.4048C45.2894 23.4535 45.2341 23.5425 45.2341 23.6026C45.2341 23.6627 45.2065 23.7119 45.1727 23.7119C45.1389 23.7119 45.1113 23.7611 45.1113 23.8212C45.1113 23.8813 45.056 23.9703 44.9884 24.0191C44.9208 24.0678 44.8656 24.1568 44.8656 24.2169C44.8656 24.277 44.8379 24.3262 44.8041 24.3262C44.7703 24.3262 44.7427 24.3754 44.7427 24.4355C44.7427 24.4956 44.6874 24.5846 44.6198 24.6334C44.5523 24.6821 44.497 24.765 44.497 24.8176C44.497 24.8703 44.4417 24.9532 44.3741 25.0019C44.3065 25.0506 44.2513 25.1286 44.2513 25.1752C44.2513 25.2217 44.1683 25.3373 44.067 25.4319C43.9656 25.5266 43.8827 25.6372 43.8827 25.6777C43.8827 25.7181 43.7997 25.8287 43.6984 25.9234C43.597 26.018 43.5141 26.1397 43.5141 26.1937C43.5141 26.251 43.4629 26.292 43.3912 26.292C43.3207 26.292 43.2684 26.3329 43.2684 26.3881C43.2684 26.441 43.1302 26.6188 42.9612 26.7834C42.7923 26.948 42.6541 27.1258 42.6541 27.1787C42.6541 27.2316 42.6264 27.2748 42.5926 27.2748C42.5589 27.2748 42.5312 27.324 42.5312 27.3841C42.5312 27.4443 42.4759 27.5333 42.4084 27.582C42.3408 27.6307 42.2855 27.7197 42.2855 27.7798C42.2855 27.8399 42.2579 27.8891 42.2241 27.8891C42.1903 27.8891 42.1626 27.9721 42.1626 28.0734C42.1626 28.1748 42.135 28.2577 42.1012 28.2577C42.0674 28.2577 42.0398 28.313 42.0398 28.3806C42.0398 28.4481 42.0121 28.5034 41.9783 28.5034C41.9446 28.5034 41.9169 28.5864 41.9169 28.6877C41.9169 28.7891 41.8893 28.872 41.8555 28.872C41.8217 28.872 41.7941 28.9549 41.7941 29.0563C41.7941 29.1577 41.7664 29.2406 41.7326 29.2406C41.6988 29.2406 41.6712 29.3235 41.6712 29.4249C41.6712 29.5262 41.6436 29.6092 41.6098 29.6092C41.576 29.6092 41.5483 29.7474 41.5483 29.9163C41.5483 30.0852 41.5207 30.2235 41.4869 30.2235C41.4531 30.2235 41.4255 30.3041 41.4255 30.4027C41.4255 30.5012 41.3909 30.5979 41.3487 30.6177C41.2873 30.6463 41.2873 30.6607 41.3487 30.6893C41.4398 30.7318 41.4527 30.9606 41.3641 30.9606C41.2682 30.9606 41.2831 32.4168 41.3794 32.4559C41.4374 32.4794 41.4337 32.5044 41.3641 32.5578C41.2945 32.6112 41.2907 32.6362 41.3487 32.6597C41.3909 32.6768 41.4255 32.7439 41.4255 32.8086C41.4255 32.8734 41.4531 32.9264 41.4869 32.9264C41.5207 32.9264 41.5483 33.0093 41.5483 33.1107C41.5483 33.212 41.576 33.295 41.6098 33.295C41.6436 33.295 41.6712 33.3373 41.6712 33.3891C41.6712 33.4972 42.0628 33.9093 42.1654 33.9093C42.203 33.9093 42.3399 34.0198 42.4698 34.155C42.5997 34.2901 42.7362 34.4007 42.7733 34.4007C42.8103 34.4007 43.0211 34.5811 43.2415 34.8016C43.5948 35.1548 43.6317 35.2133 43.5519 35.293C43.5022 35.3428 43.418 35.3836 43.3649 35.3836C43.3118 35.3836 43.2684 35.4112 43.2684 35.445C43.2684 35.4788 43.1578 35.5064 43.0227 35.5064C42.8875 35.5064 42.7769 35.5341 42.7769 35.5679C42.7769 35.6054 42.4902 35.6293 42.0398 35.6293C41.5893 35.6293 41.3026 35.6054 41.3026 35.5679C41.3026 35.5341 41.192 35.5064 41.0569 35.5064C40.9218 35.5064 40.8112 35.4788 40.8112 35.445C40.8112 35.4112 40.7559 35.3836 40.6883 35.3836C40.6208 35.3836 40.5655 35.3559 40.5655 35.3221C40.5655 35.2884 40.5102 35.2607 40.4426 35.2607C40.3737 35.2607 40.3197 35.2197 40.3197 35.1674C40.3197 35.0616 39.5592 34.2778 39.4565 34.2778C39.363 34.2778 39.214 34.119 39.214 34.0193C39.214 33.9737 39.1587 33.8965 39.0912 33.8478C39.019 33.7958 38.9683 33.6888 38.9683 33.5885C38.9683 33.4947 38.9406 33.4178 38.9069 33.4178C38.8731 33.4178 38.8454 33.2819 38.8454 33.1158C38.8454 32.9317 38.8155 32.8016 38.7686 32.7826C38.7107 32.7591 38.7144 32.7341 38.784 32.6807C38.8536 32.6272 38.8573 32.6022 38.7994 32.5787C38.7563 32.5612 38.7226 32.4419 38.7226 32.307C38.7226 32.1746 38.6949 32.0664 38.6611 32.0664C38.6274 32.0664 38.5997 31.9581 38.5997 31.8257C38.5997 31.6934 38.5652 31.569 38.5229 31.5493C38.4615 31.5207 38.4615 31.5063 38.5229 31.4777C38.614 31.4352 38.6269 31.2063 38.5383 31.2063C38.5045 31.2063 38.4769 31.0681 38.4769 30.8992C38.4769 30.7303 38.4492 30.592 38.4154 30.592C38.3816 30.592 38.354 30.5391 38.354 30.4743C38.354 30.4095 38.3194 30.3425 38.2772 30.3254C38.2192 30.3019 38.223 30.2769 38.2926 30.2235C38.3622 30.17 38.3659 30.145 38.3079 30.1216C38.2649 30.104 38.2311 29.9847 38.2311 29.8498C38.2311 29.7174 38.2035 29.6092 38.1697 29.6092C38.1359 29.6092 38.1083 29.4986 38.1083 29.3634C38.1083 29.2283 38.0806 29.1177 38.0468 29.1177C38.0131 29.1177 37.9854 29.0348 37.9854 28.9334C37.9854 28.8321 37.9578 28.7491 37.924 28.7491C37.8902 28.7491 37.8626 28.6386 37.8626 28.5034C37.8626 28.3683 37.8349 28.2577 37.8011 28.2577C37.7673 28.2577 37.7397 28.1471 37.7397 28.012C37.7397 27.8768 37.7121 27.7663 37.6783 27.7663C37.6445 27.7663 37.6168 27.6857 37.6168 27.5871C37.6168 27.4885 37.5822 27.3939 37.54 27.3767C37.4821 27.3533 37.4858 27.3283 37.5554 27.2748C37.625 27.2214 37.6288 27.1964 37.5708 27.1729C37.5285 27.1558 37.494 27.0611 37.494 26.9626C37.494 26.8641 37.4663 26.7834 37.4325 26.7834C37.3988 26.7834 37.3711 26.7005 37.3711 26.5991C37.3711 26.4977 37.3988 26.4148 37.4325 26.4148C37.4663 26.4148 37.494 26.3618 37.494 26.2971C37.494 26.2323 37.5285 26.1653 37.5708 26.1481C37.6289 26.1246 37.6257 26.1018 37.5574 26.0543C37.4813 26.0015 37.4905 25.9715 37.6168 25.8619C37.7395 25.7556 37.7506 25.7224 37.6783 25.6777C37.6053 25.6326 37.6136 25.6027 37.7263 25.505C37.8026 25.4388 37.8626 25.3157 37.8626 25.2251C37.8626 25.1362 37.8902 25.0634 37.924 25.0634C37.9578 25.0634 37.9854 24.9804 37.9854 24.8791C37.9854 24.7777 38.0131 24.6948 38.0468 24.6948C38.0806 24.6948 38.1083 24.6395 38.1083 24.5719C38.1083 24.5043 38.1359 24.4491 38.1697 24.4491C38.2035 24.4491 38.2311 24.3661 38.2311 24.2648C38.2311 24.1634 38.2588 24.0805 38.2926 24.0805C38.3263 24.0805 38.354 24.0252 38.354 23.9576C38.354 23.8901 38.3816 23.8348 38.4154 23.8348C38.4492 23.8348 38.4769 23.7518 38.4769 23.6505C38.4769 23.5491 38.5045 23.4662 38.5383 23.4662C38.5721 23.4662 38.5997 23.4109 38.5997 23.3433C38.5997 23.2758 38.6274 23.2205 38.6611 23.2205C38.6949 23.2205 38.7226 23.1436 38.7226 23.0498C38.7226 22.9495 38.7733 22.8425 38.8454 22.7905C38.9175 22.7384 38.9683 22.6314 38.9683 22.5312C38.9683 22.4373 38.9959 22.3604 39.0297 22.3604C39.0635 22.3604 39.0912 22.256 39.0912 22.1283C39.0912 21.9666 39.1284 21.8693 39.214 21.8076C39.3161 21.734 39.3369 21.6485 39.3369 21.3026C39.3369 21.0659 39.3634 20.8861 39.3983 20.8861C39.4321 20.8861 39.4597 20.8032 39.4597 20.7018C39.4597 20.6005 39.4321 20.5176 39.3983 20.5176C39.3645 20.5176 39.3369 20.4623 39.3369 20.3947C39.3369 20.3271 39.3092 20.2718 39.2754 20.2718C39.2417 20.2718 39.214 20.3271 39.214 20.3947C39.214 20.4623 39.1864 20.5176 39.1526 20.5176C39.1188 20.5176 39.0912 20.5728 39.0912 20.6404C39.0912 20.708 39.0635 20.7633 39.0297 20.7633C38.9959 20.7633 38.9683 20.8186 38.9683 20.8861C38.9683 20.9537 38.9406 21.009 38.9069 21.009C38.8731 21.009 38.8454 21.0643 38.8454 21.1319C38.8454 21.1994 38.8178 21.2547 38.784 21.2547C38.7502 21.2547 38.7226 21.31 38.7226 21.3776C38.7226 21.4451 38.6949 21.5004 38.6611 21.5004C38.6274 21.5004 38.5997 21.5557 38.5997 21.6233C38.5997 21.6909 38.5721 21.7462 38.5383 21.7462C38.5045 21.7462 38.4769 21.8014 38.4769 21.869C38.4769 21.9366 38.4492 21.9919 38.4154 21.9919C38.3816 21.9919 38.354 22.0472 38.354 22.1147C38.354 22.1823 38.3263 22.2376 38.2926 22.2376C38.2588 22.2376 38.2311 22.2868 38.2311 22.3469C38.2311 22.407 38.1758 22.496 38.1083 22.5447C38.0407 22.5935 37.9854 22.6825 37.9854 22.7426C37.9854 22.8027 37.9578 22.8519 37.924 22.8519C37.8902 22.8519 37.8626 22.9011 37.8626 22.9612C37.8626 23.0213 37.8073 23.1103 37.7397 23.159C37.6721 23.2078 37.6168 23.2968 37.6168 23.3569C37.6168 23.417 37.5892 23.4662 37.5554 23.4662C37.5216 23.4662 37.494 23.5215 37.494 23.589C37.494 23.6566 37.4663 23.7119 37.4325 23.7119C37.3988 23.7119 37.3711 23.7672 37.3711 23.8348C37.3711 23.9023 37.3435 23.9576 37.3097 23.9576C37.2759 23.9576 37.2483 24.0068 37.2483 24.0669C37.2483 24.127 37.193 24.2161 37.1254 24.2648C37.0398 24.3264 37.0025 24.4238 37.0025 24.5855C37.0025 24.8025 36.9905 24.8176 36.8182 24.8176C36.7169 24.8176 36.634 24.8453 36.634 24.8791C36.634 24.9155 36.4087 24.9405 36.0811 24.9405C35.7535 24.9405 35.5282 24.9655 35.5282 25.0019C35.5282 25.0357 35.39 25.0634 35.2211 25.0634C35.0521 25.0634 34.9139 25.091 34.9139 25.1248C34.9139 25.1586 34.8586 25.1862 34.7911 25.1862C34.7235 25.1862 34.6682 25.1586 34.6682 25.1248C34.6682 25.091 34.6129 25.0634 34.5453 25.0634C34.4778 25.0634 34.4225 25.091 34.4225 25.1248C34.4225 25.1589 34.2587 25.1862 34.0539 25.1862C33.8492 25.1862 33.6853 25.2135 33.6853 25.2477C33.6853 25.2814 33.63 25.3091 33.5625 25.3091C33.4949 25.3091 33.4396 25.2814 33.4396 25.2477C33.4396 25.2139 33.3843 25.1862 33.3167 25.1862C33.2492 25.1862 33.1939 25.2139 33.1939 25.2477C33.1939 25.2827 33.0096 25.3091 32.7639 25.3091C32.5182 25.3091 32.3339 25.3354 32.3339 25.3705C32.3339 25.4043 32.2509 25.4319 32.1496 25.4319C32.0482 25.4319 31.9653 25.4043 31.9653 25.3705C31.9653 25.3367 31.8824 25.3091 31.781 25.3091C31.6796 25.3091 31.5967 25.3367 31.5967 25.3705C31.5967 25.4083 31.2896 25.4319 30.7981 25.4319C30.3067 25.4319 29.9995 25.4556 29.9995 25.4934C29.9995 25.5319 29.6105 25.5548 28.9552 25.5548C28.3 25.5548 27.9109 25.5319 27.9109 25.4934C27.9109 25.4561 27.6447 25.4319 27.2352 25.4319C26.8256 25.4319 26.5595 25.4077 26.5595 25.3705C26.5595 25.2813 26.2077 25.295 26.1653 25.3859C26.1367 25.4473 26.1223 25.4473 26.0936 25.3859C26.071 25.3373 25.9261 25.3091 25.6995 25.3091C25.4704 25.3091 25.3299 25.2814 25.3099 25.2323C25.2865 25.1743 25.2615 25.1781 25.208 25.2477C25.1546 25.3173 25.1296 25.321 25.1061 25.263C25.0872 25.2164 24.9579 25.1862 24.778 25.1862C24.5981 25.1862 24.4688 25.156 24.4499 25.1094C24.4264 25.0514 24.4014 25.0552 24.348 25.1248C24.2946 25.1944 24.2696 25.1981 24.2461 25.1401C24.2286 25.0971 24.1092 25.0634 23.9743 25.0634C23.842 25.0634 23.7337 25.0357 23.7337 25.0019C23.7337 24.9681 23.5955 24.9405 23.4266 24.9405C23.2576 24.9405 23.1194 24.9129 23.1194 24.8791C23.1194 24.8453 22.9812 24.8176 22.8123 24.8176C22.6433 24.8176 22.5051 24.79 22.5051 24.7562C22.5051 24.7224 22.3669 24.6948 22.198 24.6948C22.029 24.6948 21.8908 24.6671 21.8908 24.6334C21.8908 24.5996 21.8379 24.5719 21.773 24.5719C21.7083 24.5719 21.6413 24.5373 21.6241 24.4951C21.6007 24.4371 21.5757 24.4409 21.5222 24.5105C21.4688 24.5801 21.4438 24.5838 21.4203 24.5259C21.4028 24.4828 21.2834 24.4491 21.1485 24.4491C21.0162 24.4491 20.9079 24.4214 20.9079 24.3876C20.9079 24.3538 20.825 24.3262 20.7236 24.3262C20.6223 24.3262 20.5393 24.2986 20.5393 24.2648C20.5393 24.231 20.4841 24.2033 20.4165 24.2033C20.3489 24.2033 20.2936 24.1757 20.2936 24.1419C20.2936 24.1081 20.2107 24.0805 20.1093 24.0805C20.008 24.0805 19.9251 24.0528 19.9251 24.0191C19.9251 23.9853 19.8421 23.9576 19.7408 23.9576C19.6394 23.9576 19.5565 23.93 19.5565 23.8962C19.5565 23.8624 19.5012 23.8348 19.4336 23.8348C19.366 23.8348 19.3108 23.8071 19.3108 23.7733C19.3108 23.7395 19.2278 23.7119 19.1265 23.7119C19.0251 23.7119 18.9422 23.6843 18.9422 23.6505C18.9422 23.6167 18.8869 23.589 18.8193 23.589C18.7517 23.589 18.6965 23.5614 18.6965 23.5276C18.6965 23.4938 18.6412 23.4662 18.5736 23.4662C18.506 23.4662 18.4507 23.4385 18.4507 23.4048C18.4507 23.371 18.3955 23.3433 18.3279 23.3433C18.2603 23.3433 18.205 23.3157 18.205 23.2819C18.205 23.2481 18.1497 23.2205 18.0822 23.2205C18.0146 23.2205 17.9593 23.1928 17.9593 23.159C17.9593 23.1252 17.904 23.0976 17.8364 23.0976C17.7689 23.0976 17.7136 23.07 17.7136 23.0362C17.7136 23.0024 17.6306 22.9747 17.5293 22.9747C17.4279 22.9747 17.345 22.9471 17.345 22.9133C17.345 22.8795 17.2621 22.8519 17.1607 22.8519C17.0594 22.8519 16.9764 22.8795 16.9764 22.9133C16.9764 22.9471 16.8935 22.9747 16.7921 22.9747C16.6908 22.9747 16.6078 23.0024 16.6078 23.0362C16.6078 23.07 16.5526 23.0976 16.485 23.0976C16.4174 23.0976 16.3621 23.1252 16.3621 23.159C16.3621 23.1928 16.3129 23.2205 16.2528 23.2205C16.1927 23.2205 16.1037 23.2758 16.055 23.3433C16.0063 23.4109 15.9172 23.4662 15.8571 23.4662C15.797 23.4662 15.7478 23.4938 15.7478 23.5276C15.7478 23.5614 15.6925 23.589 15.625 23.589C15.5574 23.589 15.5021 23.6167 15.5021 23.6505C15.5021 23.6843 15.4529 23.7119 15.3928 23.7119C15.3327 23.7119 15.2437 23.7672 15.195 23.8348C15.1462 23.9023 15.0572 23.9576 14.9971 23.9576C14.937 23.9576 14.8878 23.9853 14.8878 24.0191C14.8878 24.0528 14.8325 24.0805 14.7649 24.0805C14.6974 24.0805 14.6421 24.1081 14.6421 24.1419C14.6421 24.1757 14.5868 24.2033 14.5192 24.2033C14.4517 24.2033 14.3964 24.231 14.3964 24.2648C14.3964 24.2986 14.3411 24.3262 14.2735 24.3262C14.2059 24.3262 14.1507 24.3538 14.1507 24.3876C14.1507 24.4214 14.0954 24.4491 14.0278 24.4491C13.9602 24.4491 13.9049 24.4767 13.9049 24.5105C13.9049 24.5443 13.8496 24.5719 13.7821 24.5719C13.7145 24.5719 13.6592 24.5996 13.6592 24.6334C13.6592 24.6671 13.5763 24.6948 13.4749 24.6948C13.3736 24.6948 13.2906 24.7224 13.2906 24.7562C13.2906 24.79 13.2353 24.8176 13.1678 24.8176C13.1002 24.8176 13.0449 24.8453 13.0449 24.8791C13.0449 24.9129 12.9343 24.9405 12.7992 24.9405C12.664 24.9405 12.5535 24.9681 12.5535 25.0019C12.5535 25.0357 12.4705 25.0634 12.3692 25.0634C12.2259 25.0634 12.1849 25.0361 12.1849 24.9405C12.1849 24.8729 12.2125 24.8176 12.2463 24.8176C12.2801 24.8176 12.3078 24.7347 12.3078 24.6334C12.3078 24.532 12.3354 24.4491 12.3692 24.4491C12.403 24.4491 12.4306 24.3938 12.4306 24.3262C12.4306 24.2586 12.4583 24.2033 12.492 24.2033C12.5258 24.2033 12.5535 24.1481 12.5535 24.0805C12.5535 24.0129 12.5811 23.9576 12.6149 23.9576C12.6487 23.9576 12.6763 23.8747 12.6763 23.7733C12.6763 23.672 12.704 23.589 12.7378 23.589C12.7715 23.589 12.7992 23.5338 12.7992 23.4662C12.7992 23.3986 12.8268 23.3433 12.8606 23.3433C12.8944 23.3433 12.9221 23.288 12.9221 23.2205C12.9221 23.1529 12.9497 23.0976 12.9835 23.0976C13.0173 23.0976 13.0449 23.0147 13.0449 22.9133C13.0449 22.812 13.0726 22.729 13.1063 22.729C13.1401 22.729 13.1678 22.6737 13.1678 22.6062C13.1678 22.5386 13.1954 22.4833 13.2292 22.4833C13.263 22.4833 13.2906 22.428 13.2906 22.3604C13.2906 22.2929 13.3183 22.2376 13.3521 22.2376C13.3858 22.2376 13.4135 22.1823 13.4135 22.1147C13.4135 22.0472 13.4411 21.9919 13.4749 21.9919C13.5087 21.9919 13.5364 21.9366 13.5364 21.869C13.5364 21.8014 13.564 21.7462 13.5978 21.7462C13.6316 21.7462 13.6592 21.6909 13.6592 21.6233C13.6592 21.5557 13.6869 21.5004 13.7206 21.5004C13.7544 21.5004 13.7821 21.4475 13.7821 21.3827C13.7821 21.3179 13.8166 21.2509 13.8589 21.2338C13.9168 21.2103 13.9131 21.1853 13.8435 21.1319C13.7739 21.0784 13.7702 21.0534 13.8281 21.0299C13.8805 21.0087 13.9049 20.8439 13.9049 20.5125C13.9049 20.0671 13.8946 20.0261 13.7821 20.0261C13.7002 20.0261 13.6592 20.0671 13.6592 20.149C13.6592 20.2165 13.6316 20.2718 13.5978 20.2718C13.564 20.2718 13.5364 20.321 13.5364 20.3811C13.5364 20.4413 13.4811 20.5303 13.4135 20.579C13.3459 20.6277 13.2906 20.7167 13.2906 20.7769C13.2906 20.8369 13.263 20.8861 13.2292 20.8861C13.1954 20.8861 13.1678 20.9353 13.1678 20.9954C13.1678 21.0556 13.1125 21.1446 13.0449 21.1933C12.9773 21.242 12.9221 21.32 12.9221 21.3665C12.9221 21.413 12.8391 21.5286 12.7378 21.6233C12.6364 21.718 12.5535 21.8396 12.5535 21.8936C12.5535 21.9477 12.5258 21.9919 12.492 21.9919C12.4583 21.9919 12.4306 22.0472 12.4306 22.1147C12.4306 22.1823 12.403 22.2376 12.3692 22.2376C12.3354 22.2376 12.3078 22.2929 12.3078 22.3604C12.3078 22.428 12.2801 22.4833 12.2463 22.4833C12.2125 22.4833 12.1849 22.5386 12.1849 22.6062C12.1849 22.6737 12.1573 22.729 12.1235 22.729C12.0897 22.729 12.062 22.7843 12.062 22.8519C12.062 22.9195 12.0344 22.9747 12.0006 22.9747C11.9668 22.9747 11.9392 23.03 11.9392 23.0976C11.9392 23.1652 11.9115 23.2205 11.8777 23.2205C11.844 23.2205 11.8163 23.2758 11.8163 23.3433C11.8163 23.4109 11.7887 23.4662 11.7549 23.4662C11.7211 23.4662 11.6935 23.5215 11.6935 23.589C11.6935 23.6566 11.6658 23.7119 11.632 23.7119C11.5982 23.7119 11.5706 23.7948 11.5706 23.8962C11.5706 23.9976 11.543 24.0805 11.5092 24.0805C11.4754 24.0805 11.4477 24.1634 11.4477 24.2648C11.4477 24.3661 11.4201 24.4491 11.3863 24.4491C11.3525 24.4491 11.3249 24.5043 11.3249 24.5719C11.3249 24.6395 11.2972 24.6948 11.2635 24.6948C11.2297 24.6948 11.202 24.8229 11.202 24.9794C11.202 25.1968 11.1699 25.2918 11.0658 25.3821C10.9501 25.4824 10.9432 25.5097 11.0197 25.5629C11.088 25.6104 11.0913 25.6331 11.0331 25.6567C10.9908 25.6739 10.9563 25.7409 10.9563 25.8056C10.9563 25.8704 10.9287 25.9234 10.8949 25.9234C10.8611 25.9234 10.8334 26.0063 10.8334 26.1077C10.8334 26.209 10.8058 26.292 10.772 26.292C10.7382 26.292 10.7106 26.4025 10.7106 26.5377C10.7106 26.6728 10.6829 26.7834 10.6492 26.7834C10.6154 26.7834 10.5877 26.9216 10.5877 27.0905C10.5877 27.2595 10.5601 27.3977 10.5263 27.3977C10.4925 27.3977 10.4649 27.5083 10.4649 27.6434C10.4649 27.7786 10.4372 27.8891 10.4034 27.8891C10.3696 27.8891 10.342 28.0273 10.342 28.1963C10.342 28.3652 10.3144 28.5034 10.2806 28.5034C10.2464 28.5034 10.2191 28.6673 10.2191 28.872C10.2191 29.0768 10.1919 29.2406 10.1577 29.2406C10.1239 29.2406 10.0963 29.3765 10.0963 29.5426C10.0963 29.7242 10.0656 29.8589 10.0195 29.8805C9.95807 29.9091 9.95807 29.9235 10.0195 29.9521C10.1106 29.9946 10.1235 30.2235 10.0349 30.2235C9.93718 30.2235 9.95235 33.399 10.0502 33.4388C10.1096 33.4628 10.1077 33.4834 10.0422 33.5293C9.97539 33.5759 10.0309 33.6622 10.3019 33.9332C10.4914 34.1228 10.6885 34.2778 10.7399 34.2778C10.7914 34.2778 10.8334 34.3213 10.8334 34.3743C10.8334 34.4869 10.9776 34.6464 11.0792 34.6464C11.1706 34.6464 11.3249 34.8018 11.3249 34.8938C11.3249 34.9333 11.4078 35.0432 11.5092 35.1378C11.6105 35.2325 11.6935 35.3542 11.6935 35.4082C11.6935 35.4623 11.7211 35.5064 11.7549 35.5064C11.8481 35.5064 11.8283 35.8104 11.7285 35.9101C11.6263 36.0124 10.8334 36.0357 10.8334 35.9364C10.8334 35.9026 10.7229 35.875 10.5877 35.875C10.4526 35.875 10.342 35.9026 10.342 35.9364C10.342 35.9702 10.2591 35.9979 10.1577 35.9979C10.0564 35.9979 9.97342 35.9702 9.97342 35.9364C9.97342 35.9026 9.86285 35.875 9.7277 35.875C9.59256 35.875 9.48198 35.8474 9.48198 35.8136C9.48198 35.7249 9.25316 35.7378 9.21065 35.8289C9.18202 35.8904 9.16765 35.8904 9.13902 35.8289C9.1193 35.7867 9.05019 35.7521 8.98545 35.7521C8.92064 35.7521 8.86769 35.7245 8.86769 35.6907C8.86769 35.6569 8.78476 35.6293 8.6834 35.6293C8.58204 35.6293 8.49911 35.6016 8.49911 35.5679C8.49911 35.5341 8.44382 35.5064 8.37625 35.5064C8.30868 35.5064 8.25339 35.4788 8.25339 35.445C8.25339 35.4112 8.211 35.3836 8.15921 35.3836C8.00441 35.3836 7.63909 34.9751 7.63909 34.802C7.63909 34.7164 7.61145 34.6464 7.57766 34.6464C7.54388 34.6464 7.51623 34.5911 7.51623 34.5236C7.51623 34.456 7.48859 34.4007 7.4548 34.4007C7.41972 34.4007 7.39337 34.2164 7.39337 33.9707C7.39337 33.725 7.36702 33.5407 7.33194 33.5407C7.29816 33.5407 7.27051 33.4577 7.27051 33.3564C7.27051 33.255 7.24287 33.1721 7.20908 33.1721C7.1753 33.1721 7.14765 33.0892 7.14765 32.9878C7.14765 32.8864 7.12001 32.8035 7.08622 32.8035C7.05244 32.8035 7.02479 32.7482 7.02479 32.6807C7.02479 32.6131 6.99715 32.5578 6.96336 32.5578C6.92958 32.5578 6.90193 32.5086 6.90193 32.4485C6.90193 32.3884 6.84665 32.2994 6.77908 32.2506C6.7115 32.2019 6.65622 32.1129 6.65622 32.0528C6.65622 31.9927 6.62857 31.9435 6.59478 31.9435C6.561 31.9435 6.53336 31.8882 6.53336 31.8206C6.53336 31.7531 6.50571 31.6978 6.47192 31.6978C6.43814 31.6978 6.4105 31.6425 6.4105 31.5749C6.4105 31.5073 6.38285 31.4521 6.34906 31.4521C6.31528 31.4521 6.28764 31.3968 6.28764 31.3292C6.28764 31.2616 6.25999 31.2063 6.2262 31.2063C6.19242 31.2063 6.16478 31.1571 6.16478 31.0971C6.16478 31.0369 6.10949 30.9479 6.04192 30.8992C5.97434 30.8505 5.91906 30.7615 5.91906 30.7013C5.91906 30.6412 5.89141 30.592 5.85763 30.592C5.82384 30.592 5.7962 30.5368 5.7962 30.4692C5.7962 30.4016 5.76855 30.3463 5.73477 30.3463C5.70098 30.3463 5.67334 30.291 5.67334 30.2235C5.67334 30.1559 5.64569 30.1006 5.61191 30.1006C5.57812 30.1006 5.55048 30.0453 5.55048 29.9777C5.55048 29.9102 5.52283 29.8549 5.48905 29.8549C5.45526 29.8549 5.42762 29.7996 5.42762 29.732C5.42762 29.6645 5.39997 29.6092 5.36619 29.6092C5.3324 29.6092 5.30476 29.5262 5.30476 29.4249C5.30476 29.3235 5.27711 29.2406 5.24333 29.2406C5.20954 29.2406 5.1819 29.1853 5.1819 29.1177C5.1819 29.0502 5.15425 28.9949 5.12047 28.9949C5.08668 28.9949 5.05904 28.9119 5.05904 28.8106C5.05904 28.7092 5.03139 28.6263 4.99761 28.6263C4.96382 28.6263 4.93618 28.5434 4.93618 28.442C4.93618 28.3406 4.90854 28.2577 4.87475 28.2577C4.84097 28.2577 4.81332 28.1771 4.81332 28.0785C4.81332 27.98 4.77874 27.8853 4.73653 27.8682C4.67854 27.8447 4.68229 27.8197 4.75189 27.7663C4.82149 27.7128 4.82524 27.6878 4.76725 27.6644C4.72498 27.6472 4.69046 27.5548 4.69046 27.4591C4.69046 27.3634 4.72498 27.2689 4.76725 27.2492C4.82868 27.2206 4.82868 27.2062 4.76725 27.1776C4.67615 27.1351 4.66325 26.9063 4.75189 26.9063C4.78568 26.9063 4.81332 26.768 4.81332 26.5991C4.81332 26.4302 4.84097 26.292 4.87475 26.292C4.90854 26.292 4.93618 26.2367 4.93618 26.1691C4.93618 26.1015 4.90854 26.0462 4.87475 26.0462C4.84097 26.0462 4.81332 25.9633 4.81332 25.8619C4.81332 25.7606 4.84097 25.6777 4.87475 25.6777C4.91327 25.6777 4.93618 25.2886 4.93618 24.6334C4.93618 23.9781 4.95909 23.589 4.99761 23.589C5.03226 23.589 5.05904 23.4145 5.05904 23.1884V22.7878L4.72253 22.4512C4.53744 22.2662 4.34393 22.1147 4.29251 22.1147C4.2411 22.1147 4.19902 22.0717 4.19902 22.0192C4.19902 21.9666 4.03316 21.7608 3.83044 21.5619C3.62772 21.3629 3.46186 21.1571 3.46186 21.1045C3.46186 21.05 3.40922 21.009 3.339 21.009C3.26738 21.009 3.21614 20.968 3.21614 20.9108C3.21614 20.8568 3.13322 20.7351 3.03186 20.6404C2.9305 20.5458 2.84756 20.4241 2.84756 20.3701C2.84756 20.316 2.81992 20.2718 2.78614 20.2718C2.75235 20.2718 2.72471 20.2226 2.72471 20.1626C2.72471 20.1024 2.66942 20.0134 2.60185 19.9647C2.53428 19.916 2.47899 19.833 2.47899 19.7804C2.47899 19.7278 2.4237 19.6448 2.35613 19.5961C2.28856 19.5474 2.23327 19.4584 2.23327 19.3982C2.23327 19.3382 2.20562 19.289 2.17184 19.289C2.13805 19.289 2.11041 19.2398 2.11041 19.1797C2.11041 19.1195 2.05512 19.0305 1.98755 18.9818C1.91998 18.9331 1.86469 18.8441 1.86469 18.7839C1.86469 18.7239 1.83705 18.6747 1.80326 18.6747C1.76947 18.6747 1.74183 18.6194 1.74183 18.5518C1.74183 18.4842 1.71419 18.4289 1.6804 18.4289C1.64661 18.4289 1.61897 18.346 1.61897 18.2447C1.61897 18.1433 1.59133 18.0604 1.55754 18.0604C1.52375 18.0604 1.49611 18.0051 1.49611 17.9375C1.49611 17.8699 1.46847 17.8146 1.43468 17.8146C1.40089 17.8146 1.37325 17.7317 1.37325 17.6304C1.37325 17.529 1.34561 17.4461 1.31182 17.4461C1.27803 17.4461 1.25039 17.3631 1.25039 17.2618C1.25039 17.1604 1.22275 17.0775 1.18896 17.0775C1.15517 17.0775 1.12753 16.9669 1.12753 16.8318C1.12753 16.6966 1.09989 16.586 1.0661 16.586C1.03195 16.586 1.00467 16.4222 1.00467 16.2175C1.00467 16.0127 0.977398 15.8489 0.943241 15.8489C0.904419 15.8489 0.881813 15.4189 0.881813 14.6817C0.881813 13.9446 0.904419 13.5146 0.943241 13.5146C1.03275 13.5146 1.01862 13.0399 0.927887 12.9975C0.866455 12.9689 0.866455 12.9545 0.927887 12.9259C0.974018 12.9043 1.00467 12.7695 1.00467 12.588C1.00467 12.4219 1.03231 12.286 1.0661 12.286C1.10026 12.286 1.12753 12.1221 1.12753 11.9174C1.12753 11.7126 1.15481 11.5488 1.18896 11.5488C1.22275 11.5488 1.25039 11.4106 1.25039 11.2417C1.25039 11.0727 1.27803 10.9345 1.31182 10.9345C1.34561 10.9345 1.37325 10.8239 1.37325 10.6888C1.37325 10.5536 1.40089 10.4431 1.43468 10.4431C1.46847 10.4431 1.49611 10.3325 1.49611 10.1973C1.49611 10.0622 1.52375 9.95163 1.55754 9.95163C1.59133 9.95163 1.61897 9.89634 1.61897 9.82877C1.61897 9.7612 1.64661 9.70591 1.6804 9.70591C1.71419 9.70591 1.74183 9.62298 1.74183 9.52162C1.74183 9.42026 1.76947 9.33733 1.80326 9.33733C1.83705 9.33733 1.86469 9.2544 1.86469 9.15304C1.86469 9.05168 1.89233 8.96875 1.92612 8.96875C1.95991 8.96875 1.98755 8.91346 1.98755 8.84589C1.98755 8.77832 2.01519 8.72303 2.04898 8.72303C2.08276 8.72303 2.11041 8.6401 2.11041 8.53874C2.11041 8.43738 2.13805 8.35445 2.17184 8.35445C2.20562 8.35445 2.23327 8.29917 2.23327 8.23159C2.23327 8.16402 2.26091 8.10873 2.2947 8.10873C2.32848 8.10873 2.35613 8.05345 2.35613 7.98587C2.35613 7.9183 2.38377 7.86302 2.41756 7.86302C2.45134 7.86302 2.47899 7.80773 2.47899 7.74016C2.47899 7.67258 2.50663 7.6173 2.54042 7.6173C2.5742 7.6173 2.60185 7.56201 2.60185 7.49444C2.60185 7.42686 2.62949 7.37158 2.66328 7.37158C2.69706 7.37158 2.72471 7.31629 2.72471 7.24872C2.72471 7.18114 2.75235 7.12586 2.78614 7.12586C2.81992 7.12586 2.84756 7.07665 2.84756 7.01657C2.84756 6.95643 2.90285 6.86742 2.97042 6.81871C3.038 6.76999 3.09328 6.68098 3.09328 6.62084C3.09328 6.56076 3.12093 6.51156 3.15472 6.51156C3.1885 6.51156 3.21614 6.46739 3.21614 6.41333C3.21614 6.35934 3.29908 6.23764 3.40044 6.14298C3.50179 6.04832 3.58472 5.93774 3.58472 5.89726C3.58472 5.85678 3.66766 5.74621 3.76901 5.65154C3.87037 5.55688 3.9533 5.44723 3.9533 5.40791C3.9533 5.3686 4.09152 5.20181 4.26045 5.03724C4.42938 4.87267 4.5676 4.69483 4.5676 4.64194C4.5676 4.58905 4.59525 4.54581 4.62903 4.54581C4.66282 4.54581 4.69046 4.49052 4.69046 4.42295C4.69046 4.35537 4.66282 4.30009 4.62903 4.30009C4.59525 4.30009 4.5676 4.2577 4.5676 4.20591C4.5676 4.08361 4.16978 3.68579 4.04748 3.68579C3.97855 3.68579 3.9533 3.75164 3.9533 3.93151C3.9533 4.06665 3.92566 4.17723 3.89187 4.17723C3.85809 4.17723 3.83044 4.23251 3.83044 4.30009C3.83044 4.36766 3.8028 4.42295 3.76901 4.42295C3.73523 4.42295 3.70758 4.49979 3.70758 4.59366C3.70758 4.69391 3.65684 4.80092 3.58472 4.85295C3.51715 4.90167 3.46186 4.99068 3.46186 5.05082C3.46186 5.11465 3.41641 5.1601 3.35258 5.1601C3.29244 5.1601 3.20343 5.21539 3.15472 5.28296C3.106 5.35054 3.01699 5.40582 2.95685 5.40582C2.89677 5.40582 2.84756 5.43347 2.84756 5.46725C2.84756 5.50104 2.73699 5.52868 2.60185 5.52868C2.4667 5.52868 2.35613 5.55633 2.35613 5.59011C2.35613 5.6239 2.24556 5.65154 2.11041 5.65154C1.97526 5.65154 1.86469 5.6239 1.86469 5.59011C1.86469 5.55633 1.78176 5.52868 1.6804 5.52868C1.57904 5.52868 1.49611 5.50104 1.49611 5.46725C1.49611 5.43347 1.45391 5.40582 1.40237 5.40582C1.28043 5.40582 0.758953 4.88435 0.758953 4.76241C0.758953 4.71087 0.731308 4.66867 0.697525 4.66867C0.663738 4.66867 0.636093 4.58807 0.636093 4.48947C0.636093 4.39094 0.601509 4.29419 0.559307 4.27447C0.497875 4.24584 0.497875 4.23147 0.559307 4.20284C0.659008 4.15628 0.659008 3.8296 0.559307 3.78303C0.497875 3.75441 0.497875 3.74003 0.559307 3.7114C0.601509 3.69169 0.636093 3.59493 0.636093 3.4964C0.636093 3.39787 0.663738 3.31721 0.697525 3.31721C0.731308 3.31721 0.758953 3.27501 0.758953 3.22347C0.758953 3.10915 1.27693 2.58005 1.38879 2.58005C1.4329 2.58005 1.50883 2.52477 1.55754 2.45719C1.6186 2.37248 1.71658 2.33433 1.87311 2.33433C1.99799 2.33433 2.11631 2.29981 2.13602 2.25755C2.16465 2.19612 2.17903 2.19612 2.20765 2.25755C2.26914 2.38925 2.35613 2.3417 2.35613 2.1764C2.35613 2.00519 2.23032 1.84289 2.09763 1.84289C2.05199 1.84289 1.97483 1.78761 1.92612 1.72003C1.87526 1.64945 1.76707 1.59718 1.67198 1.59718C1.58088 1.59718 1.4923 1.56265 1.47516 1.52039C1.4517 1.4624 1.4267 1.46615 1.37325 1.53575C1.31981 1.60535 1.2948 1.60909 1.27134 1.5511C1.2542 1.50884 1.15954 1.47432 1.061 1.47432C0.96241 1.47432 0.881813 1.45853 0.881813 1.43924C0.881813 1.36712 1.06076 1.2286 1.15388 1.2286C1.20696 1.2286 1.25039 1.20095 1.25039 1.16717C1.25039 1.13338 1.30568 1.10574 1.37325 1.10574C1.44082 1.10574 1.49611 1.07809 1.49611 1.04431C1.49611 1.01052 1.5514 0.982877 1.61897 0.982877C1.68654 0.982877 1.74183 1.01052 1.74183 1.04431C1.74183 1.13535 2.33874 1.12103 2.38174 1.02895C2.41037 0.967519 2.42474 0.967519 2.45337 1.02895C2.47309 1.07115 2.5422 1.10574 2.60695 1.10574C2.67175 1.10574 2.72471 1.13338 2.72471 1.16717C2.72471 1.20095 2.76678 1.2286 2.8182 1.2286C2.93983 1.2286 3.58472 1.87349 3.58472 1.99512C3.58472 2.04653 3.61237 2.08861 3.64615 2.08861C3.67994 2.08861 3.70758 2.17154 3.70758 2.2729C3.70758 2.41622 3.73486 2.45719 3.83044 2.45719C3.89802 2.45719 3.9533 2.48484 3.9533 2.51862C3.9533 2.55241 4.03623 2.58005 4.13759 2.58005C4.23895 2.58005 4.32188 2.6077 4.32188 2.64148C4.32188 2.67527 4.37717 2.70291 4.44474 2.70291C4.51231 2.70291 4.5676 2.73055 4.5676 2.76434C4.5676 2.79813 4.60968 2.82577 4.66109 2.82577C4.78273 2.82577 5.42762 3.47066 5.42762 3.59229C5.42762 3.64481 5.48143 3.68579 5.55048 3.68579C5.61805 3.68579 5.67334 3.65814 5.67334 3.62436C5.67334 3.59057 5.71751 3.56293 5.77156 3.56293C5.82556 3.56293 5.94725 3.48 6.04192 3.37864C6.13658 3.27728 6.24715 3.19435 6.28764 3.19435C6.32812 3.19435 6.43869 3.11142 6.53336 3.01006C6.62802 2.9087 6.74971 2.82577 6.80371 2.82577C6.85777 2.82577 6.90193 2.79813 6.90193 2.76434C6.90193 2.73055 6.95114 2.70291 7.01122 2.70291C7.07136 2.70291 7.16037 2.64762 7.20908 2.58005C7.2578 2.51248 7.34072 2.45719 7.39337 2.45719C7.44602 2.45719 7.52895 2.40191 7.57766 2.33433C7.62637 2.26676 7.71539 2.21147 7.77553 2.21147C7.83561 2.21147 7.88481 2.18383 7.88481 2.15004C7.88481 2.11626 7.9401 2.08861 8.00767 2.08861C8.07524 2.08861 8.13053 2.06097 8.13053 2.02718C8.13053 1.9934 8.21346 1.96575 8.31482 1.96575C8.41618 1.96575 8.49911 1.93811 8.49911 1.90432C8.49911 1.87054 8.55439 1.84289 8.62197 1.84289C8.68954 1.84289 8.74483 1.81525 8.74483 1.78146C8.74483 1.74768 8.80011 1.72003 8.86769 1.72003C8.93526 1.72003 8.99055 1.69239 8.99055 1.6586C8.99055 1.62482 9.07348 1.59718 9.17484 1.59718C9.2762 1.59718 9.35913 1.56953 9.35913 1.53575C9.35913 1.50196 9.41441 1.47432 9.48198 1.47432C9.54956 1.47432 9.60484 1.44667 9.60484 1.41289C9.60484 1.3791 9.66013 1.35146 9.7277 1.35146C9.79528 1.35146 9.85056 1.32381 9.85056 1.29003C9.85056 1.25624 9.96114 1.2286 10.0963 1.2286C10.2314 1.2286 10.342 1.20095 10.342 1.16717C10.342 1.13338 10.395 1.10574 10.4598 1.10574C10.5245 1.10574 10.5915 1.07121 10.6087 1.02895C10.6321 0.970959 10.6571 0.974707 10.7106 1.04431C10.764 1.11391 10.789 1.11765 10.8125 1.05966C10.8296 1.01746 10.8967 0.982877 10.9614 0.982877C11.0262 0.982877 11.0792 0.955234 11.0792 0.921447C11.0792 0.887661 11.1897 0.860017 11.3249 0.860017C11.46 0.860017 11.5706 0.832374 11.5706 0.798588C11.5706 0.764801 11.6812 0.737158 11.8163 0.737158C11.9515 0.737158 12.062 0.709514 12.062 0.675728C12.062 0.641941 12.1426 0.614298 12.2412 0.614298C12.3398 0.614298 12.4344 0.579713 12.4516 0.537511C12.475 0.479521 12.5 0.483268 12.5535 0.552868C12.6069 0.622468 12.6319 0.626215 12.6554 0.568226C12.6754 0.518959 12.8168 0.491438 13.05 0.491438C13.2514 0.491438 13.4135 0.464041 13.4135 0.430009C13.4135 0.396222 13.5517 0.368579 13.7206 0.368579C13.8896 0.368579 14.0278 0.340935 14.0278 0.307149C14.0278 0.273363 14.0831 0.245719 14.1507 0.245719C14.2182 0.245719 14.2735 0.273363 14.2735 0.307149C14.2735 0.340935 14.3288 0.368579 14.3964 0.368579C14.4639 0.368579 14.5192 0.340935 14.5192 0.307149C14.5192 0.272073 14.7035 0.245719 14.9492 0.245719C15.195 0.245719 15.3792 0.219366 15.3792 0.184289C15.3792 0.150503 15.4622 0.12286 15.5635 0.12286C15.6649 0.12286 15.7478 0.150503 15.7478 0.184289C15.7478 0.218076 15.8584 0.245719 15.9935 0.245719C16.1287 0.245719 16.2393 0.218076 16.2393 0.184289C16.2393 0.146264 16.5669 0.12286 17.0993 0.12286C17.6317 0.12286 17.9593 0.0994549 17.9593 0.0614298C17.9593 0.0256162 18.164 0 18.4507 0C18.7374 0 18.9422 0.0256162 18.9422 0.0614298C18.9422 0.0978577 19.1674 0.12286 19.495 0.12286C19.8226 0.12286 20.0479 0.0978577 20.0479 0.0614298C20.0479 0.0224219 20.5189 0 21.3379 0C22.157 0 22.628 0.0224219 22.628 0.0614298C22.628 0.0978577 22.8532 0.12286 23.1808 0.12286C23.5084 0.12286 23.7337 0.0978577 23.7337 0.0614298C23.7337 0.0263534 23.918 0 24.1637 0C24.4094 0 24.5937 0.0263534 24.5937 0.0614298ZM2.60185 3.13292C2.60185 3.16671 2.49736 3.19435 2.36971 3.19435C2.20802 3.19435 2.11065 3.23164 2.04898 3.31721C2.00027 3.38478 1.92311 3.44007 1.87747 3.44007C1.71093 3.44007 1.61897 3.61435 1.61897 3.92991C1.61897 4.18171 1.64895 4.27422 1.76978 4.395C1.85271 4.47793 1.96329 4.54581 2.0155 4.54581C2.06771 4.54581 2.11041 4.57345 2.11041 4.60724C2.11041 4.64102 2.1657 4.66867 2.23327 4.66867C2.30084 4.66867 2.35613 4.64102 2.35613 4.60724C2.35613 4.57345 2.39852 4.54581 2.4503 4.54581C2.50215 4.54581 2.64417 4.44617 2.76599 4.32435C2.9434 4.14694 2.97049 4.09098 2.90218 4.04325C2.83632 3.99724 2.83442 3.97647 2.89364 3.95246C2.98462 3.91547 2.99887 3.44007 2.909 3.44007C2.87521 3.44007 2.84756 3.39744 2.84756 3.34534C2.84756 3.2446 2.72483 3.07776 2.64792 3.07382C2.62255 3.07253 2.60185 3.09913 2.60185 3.13292ZM16.2393 24.3262C16.2393 24.3938 16.2116 24.4491 16.1778 24.4491C16.144 24.4491 16.1164 24.5043 16.1164 24.5719C16.1164 24.6395 16.0888 24.6948 16.055 24.6948C16.0212 24.6948 15.9935 24.8054 15.9935 24.9405C15.9935 25.0756 15.9659 25.1862 15.9321 25.1862C15.8983 25.1862 15.8707 25.2392 15.8707 25.304C15.8707 25.3687 15.8361 25.4357 15.7939 25.4529C15.7359 25.4764 15.7397 25.5014 15.8093 25.5548C15.8789 25.6082 15.8826 25.6332 15.8246 25.6567C15.7816 25.6742 15.7478 25.7936 15.7478 25.9285C15.7478 26.0609 15.7202 26.1691 15.6864 26.1691C15.6526 26.1691 15.625 26.2244 15.625 26.292C15.625 26.3595 15.6526 26.4148 15.6864 26.4148C15.7202 26.4148 15.7478 26.553 15.7478 26.722C15.7478 26.8909 15.7202 27.0291 15.6864 27.0291C15.6526 27.0291 15.625 27.0844 15.625 27.152C15.625 27.2195 15.6526 27.2748 15.6864 27.2748C15.7202 27.2748 15.7478 27.3555 15.7478 27.454C15.7478 27.5526 15.7823 27.6472 15.8246 27.6644C15.8826 27.6878 15.8789 27.7128 15.8093 27.7663C15.7397 27.8197 15.7359 27.8447 15.7939 27.8682C15.8361 27.8853 15.8707 27.98 15.8707 28.0785C15.8707 28.1771 15.8983 28.2577 15.9321 28.2577C15.9659 28.2577 15.9935 28.313 15.9935 28.3806C15.9935 28.4481 16.0212 28.5034 16.055 28.5034C16.0888 28.5034 16.1164 28.5587 16.1164 28.6263C16.1164 28.6939 16.144 28.7491 16.1778 28.7491C16.2116 28.7491 16.2393 28.8044 16.2393 28.872C16.2393 28.9396 16.2669 28.9949 16.3007 28.9949C16.3345 28.9949 16.3621 29.0778 16.3621 29.1792C16.3621 29.2805 16.3898 29.3634 16.4236 29.3634C16.4573 29.3634 16.485 29.4187 16.485 29.4863C16.485 29.5539 16.5126 29.6092 16.5464 29.6092C16.5802 29.6092 16.6078 29.6921 16.6078 29.7935C16.6078 29.8948 16.6355 29.9777 16.6693 29.9777C16.7031 29.9777 16.7307 30.0607 16.7307 30.162C16.7307 30.2634 16.7583 30.3463 16.7921 30.3463C16.8259 30.3463 16.8536 30.4293 16.8536 30.5306C16.8536 30.632 16.8812 30.7149 16.915 30.7149C16.9488 30.7149 16.9764 30.7679 16.9764 30.8327C16.9764 30.8974 17.0109 30.9644 17.0532 30.9816C17.1112 31.005 17.1075 31.03 17.0378 31.0835C16.9683 31.1369 16.9645 31.1619 17.0225 31.1854C17.0656 31.2029 17.0993 31.3223 17.0993 31.4572C17.0993 31.5895 17.1269 31.6978 17.1607 31.6978C17.1945 31.6978 17.2221 31.8023 17.2221 31.9299C17.2221 32.0916 17.2594 32.189 17.345 32.2506C17.4126 32.2994 17.4679 32.3884 17.4679 32.4485C17.4679 32.5086 17.4955 32.5578 17.5293 32.5578C17.5631 32.5578 17.5907 32.607 17.5907 32.6671C17.5907 32.7272 17.646 32.8162 17.7136 32.8649C17.7812 32.9137 17.8364 32.9966 17.8364 33.0492C17.8364 33.1019 17.8917 33.1848 17.9593 33.2335C18.0269 33.2822 18.0822 33.3602 18.0822 33.4068C18.0822 33.4533 18.1651 33.5689 18.2664 33.6635C18.3678 33.7582 18.4507 33.8738 18.4507 33.9203C18.4507 33.9669 18.506 34.0448 18.5736 34.0935C18.6412 34.1423 18.6965 34.2313 18.6965 34.2914C18.6965 34.3515 18.7241 34.4007 18.7579 34.4007C18.7917 34.4007 18.8193 34.4499 18.8193 34.51C18.8193 34.5701 18.8746 34.6591 18.9422 34.7078C19.0097 34.7566 19.065 34.8456 19.065 34.9057C19.065 34.9658 19.0927 35.015 19.1265 35.015C19.1603 35.015 19.1879 35.0426 19.1879 35.0764C19.1879 35.1102 19.1326 35.1378 19.065 35.1378C18.9975 35.1378 18.9422 35.1655 18.9422 35.1993C18.9422 35.2334 18.7783 35.2607 18.5736 35.2607C18.3689 35.2607 18.205 35.288 18.205 35.3221C18.205 35.359 17.9593 35.3836 17.5907 35.3836C17.2221 35.3836 16.9764 35.359 16.9764 35.3221C16.9764 35.2884 16.9272 35.2607 16.8671 35.2607C16.807 35.2607 16.718 35.2054 16.6693 35.1378C16.6206 35.0703 16.5434 35.015 16.4978 35.015C16.3963 35.015 16.2393 34.8654 16.2393 34.7688C16.2393 34.73 16.1287 34.592 15.9935 34.4621C15.8584 34.3323 15.7478 34.1955 15.7478 34.1581C15.7478 34.1208 15.3885 33.7323 14.9492 33.295C14.51 32.8576 14.1507 32.4686 14.1507 32.4305C14.1507 32.3925 14.0677 32.2839 13.9664 32.1892C13.865 32.0946 13.7821 31.9729 13.7821 31.9189C13.7821 31.8648 13.7544 31.8206 13.7206 31.8206C13.6869 31.8206 13.6592 31.7377 13.6592 31.6364C13.6592 31.535 13.6316 31.4521 13.5978 31.4521C13.564 31.4521 13.5364 31.3691 13.5364 31.2678C13.5364 31.1664 13.5087 31.0835 13.4749 31.0835C13.4411 31.0835 13.4135 30.9453 13.4135 30.7763C13.4135 30.6074 13.3858 30.4692 13.3521 30.4692C13.3183 30.4692 13.2906 30.3863 13.2906 30.2849C13.2906 30.1835 13.263 30.1006 13.2292 30.1006C13.1954 30.1006 13.1678 30.0476 13.1678 29.9828C13.1678 29.9181 13.1332 29.8511 13.091 29.8339C13.033 29.8105 13.0367 29.7855 13.1063 29.732C13.1759 29.6786 13.1797 29.6536 13.1217 29.6301C13.0786 29.6126 13.0449 29.4932 13.0449 29.3583C13.0449 29.226 13.0173 29.1177 12.9835 29.1177C12.9497 29.1177 12.9221 29.0348 12.9221 28.9334C12.9221 28.8321 12.8944 28.7491 12.8606 28.7491C12.8268 28.7491 12.7992 28.6662 12.7992 28.5649C12.7992 28.4635 12.7715 28.3806 12.7378 28.3806C12.704 28.3806 12.6763 28.27 12.6763 28.1349C12.6763 27.9997 12.6487 27.8891 12.6149 27.8891C12.5811 27.8891 12.5535 27.8361 12.5535 27.7714C12.5535 27.7066 12.5189 27.6396 12.4767 27.6225C12.4187 27.599 12.4224 27.574 12.492 27.5206C12.5616 27.4671 12.5654 27.4421 12.5074 27.4186C12.4651 27.4015 12.4306 27.3368 12.4306 27.2748C12.4306 27.2129 12.396 27.1482 12.3538 27.131C12.2958 27.1076 12.2996 27.0826 12.3692 27.0291C12.4388 26.9757 12.4425 26.9507 12.3845 26.9272C12.3423 26.9101 12.3078 26.8154 12.3078 26.7169C12.3078 26.6183 12.2801 26.5377 12.2463 26.5377C12.1577 26.5377 12.1706 26.3089 12.2617 26.2663C12.3231 26.2377 12.3231 26.2233 12.2617 26.1947C12.2194 26.175 12.1849 26.0805 12.1849 25.9848C12.1849 25.8891 12.1511 25.7995 12.1098 25.7857C12.0623 25.7699 12.0985 25.6971 12.2082 25.5874C12.3492 25.4464 12.3928 25.43 12.4415 25.4998C12.4876 25.5658 12.5086 25.5678 12.5325 25.5087C12.55 25.4657 12.6694 25.4319 12.8043 25.4319C12.9366 25.4319 13.0449 25.4043 13.0449 25.3705C13.0449 25.3367 13.1278 25.3091 13.2292 25.3091C13.3306 25.3091 13.4135 25.2814 13.4135 25.2477C13.4135 25.2139 13.4688 25.1862 13.5364 25.1862C13.6039 25.1862 13.6592 25.1586 13.6592 25.1248C13.6592 25.091 13.7421 25.0634 13.8435 25.0634C13.9449 25.0634 14.0278 25.0357 14.0278 25.0019C14.0278 24.9681 14.1107 24.9405 14.2121 24.9405C14.3134 24.9405 14.3964 24.9129 14.3964 24.8791C14.3964 24.8453 14.4793 24.8176 14.5807 24.8176C14.682 24.8176 14.7649 24.79 14.7649 24.7562C14.7649 24.7224 14.8479 24.6948 14.9492 24.6948C15.0506 24.6948 15.1335 24.6671 15.1335 24.6334C15.1335 24.5996 15.2165 24.5719 15.3178 24.5719C15.4192 24.5719 15.5021 24.5443 15.5021 24.5105C15.5021 24.4767 15.5574 24.4491 15.625 24.4491C15.6925 24.4491 15.7478 24.4214 15.7478 24.3876C15.7478 24.3538 15.8031 24.3262 15.8707 24.3262C15.9383 24.3262 15.9935 24.2986 15.9935 24.2648C15.9935 24.231 16.0488 24.2033 16.1164 24.2033C16.1983 24.2033 16.2393 24.2443 16.2393 24.3262ZM36.7568 25.3705C36.7568 25.4043 36.7292 25.4319 36.6954 25.4319C36.6596 25.4319 36.634 25.6367 36.634 25.9234C36.634 26.2101 36.6083 26.4148 36.5725 26.4148C36.5387 26.4148 36.5111 26.4701 36.5111 26.5377C36.5111 26.6052 36.5387 26.6605 36.5725 26.6605C36.6614 26.6605 36.6481 26.8902 36.5572 26.9272C36.4994 26.9506 36.5032 26.9747 36.5725 27.0244C36.6544 27.0832 36.6544 27.0979 36.5725 27.1566C36.5032 27.2064 36.4994 27.2305 36.5572 27.2539C36.5994 27.271 36.634 27.3657 36.634 27.4642C36.634 27.5628 36.6616 27.6434 36.6954 27.6434C36.7292 27.6434 36.7568 27.7263 36.7568 27.8277C36.7568 27.9291 36.7845 28.012 36.8182 28.012C36.852 28.012 36.8797 28.1202 36.8797 28.2526C36.8797 28.3875 36.9134 28.5069 36.9565 28.5244C37.0145 28.5478 37.0107 28.5728 36.9411 28.6263C36.8715 28.6797 36.8678 28.7047 36.9257 28.7282C36.9688 28.7457 37.0025 28.8651 37.0025 29C37.0025 29.1323 37.0302 29.2406 37.064 29.2406C37.0978 29.2406 37.1254 29.3512 37.1254 29.4863C37.1254 29.6215 37.0978 29.732 37.064 29.732C37.0302 29.732 37.0025 29.8127 37.0025 29.9112C37.0025 30.0098 36.968 30.1044 36.9257 30.1216C36.8678 30.145 36.8715 30.17 36.9411 30.2235C37.0107 30.2769 37.0145 30.3019 36.9565 30.3254C36.9097 30.3444 36.8797 30.4745 36.8797 30.6586C36.8797 30.8247 36.852 30.9606 36.8182 30.9606C36.7845 30.9606 36.7568 31.0413 36.7568 31.1398C36.7568 31.2383 36.7222 31.333 36.68 31.3501C36.622 31.3736 36.6258 31.3986 36.6954 31.4521C36.765 31.5055 36.7687 31.5305 36.7107 31.554C36.6681 31.5713 36.634 31.6899 36.634 31.8206C36.634 31.9501 36.5994 32.0723 36.5572 32.092C36.4957 32.1206 36.4957 32.135 36.5572 32.1636C36.6483 32.2061 36.6612 32.4349 36.5725 32.4349C36.4764 32.4349 36.4914 34.0139 36.5879 34.0531C36.6459 34.0765 36.6421 34.1015 36.5725 34.155C36.5029 34.2084 36.4992 34.2334 36.5572 34.2569C36.5994 34.274 36.634 34.3687 36.634 34.4672C36.634 34.5658 36.6616 34.6464 36.6954 34.6464C36.7886 34.6464 36.7688 34.9504 36.669 35.0501C36.6208 35.0984 36.4826 35.1378 36.3619 35.1378C36.2412 35.1378 36.1425 35.1655 36.1425 35.1993C36.1425 35.2331 36.0043 35.2607 35.8354 35.2607C35.6664 35.2607 35.5282 35.2331 35.5282 35.1993C35.5282 35.1651 35.3644 35.1378 35.1596 35.1378C34.9549 35.1378 34.7911 35.1106 34.7911 35.0764C34.7911 35.0426 34.7476 35.015 34.6946 35.015C34.5704 35.015 34.4225 34.8671 34.4225 34.7429C34.4225 34.6898 34.3948 34.6464 34.3611 34.6464C34.3273 34.6464 34.2996 34.5635 34.2996 34.4621C34.2996 34.3608 34.272 34.2778 34.2382 34.2778C34.2018 34.2778 34.1768 34.0526 34.1768 33.725C34.1768 33.3974 34.1518 33.1721 34.1153 33.1721C34.0785 33.1721 34.0539 32.9264 34.0539 32.5578C34.0539 32.1892 34.0293 31.9435 33.9925 31.9435C33.9587 31.9435 33.931 31.8352 33.931 31.7029C33.931 31.568 33.8973 31.4486 33.8543 31.4311C33.7963 31.4076 33.8 31.3826 33.8696 31.3292C33.9392 31.2758 33.943 31.2508 33.885 31.2273C33.8419 31.2098 33.8082 31.0904 33.8082 30.9555C33.8082 30.8231 33.7805 30.7149 33.7468 30.7149C33.713 30.7149 33.6853 30.632 33.6853 30.5306C33.6853 30.4293 33.6577 30.3463 33.6239 30.3463C33.5901 30.3463 33.5625 30.291 33.5625 30.2235C33.5625 30.1559 33.5348 30.1006 33.501 30.1006C33.4673 30.1006 33.4396 30.0177 33.4396 29.9163C33.4396 29.815 33.412 29.732 33.3782 29.732C33.3444 29.732 33.3167 29.6491 33.3167 29.5477C33.3167 29.4464 33.2891 29.3634 33.2553 29.3634C33.2215 29.3634 33.1939 29.2866 33.1939 29.1927C33.1939 29.0925 33.1431 28.9855 33.071 28.9334C32.9989 28.8814 32.9482 28.7744 32.9482 28.6741C32.9482 28.5803 32.9205 28.5034 32.8867 28.5034C32.853 28.5034 32.8253 28.4205 32.8253 28.3191C32.8253 28.2178 32.7977 28.1349 32.7639 28.1349C32.7301 28.1349 32.7024 28.0519 32.7024 27.9506C32.7024 27.8492 32.6748 27.7663 32.641 27.7663C32.6072 27.7663 32.5796 27.6833 32.5796 27.582C32.5796 27.4806 32.5519 27.3977 32.5182 27.3977C32.4844 27.3977 32.4567 27.3424 32.4567 27.2748C32.4567 27.2073 32.4291 27.152 32.3953 27.152C32.3615 27.152 32.3339 27.069 32.3339 26.9677C32.3339 26.8663 32.3062 26.7834 32.2724 26.7834C32.2387 26.7834 32.211 26.7005 32.211 26.5991C32.211 26.4977 32.1834 26.4148 32.1496 26.4148C32.1158 26.4148 32.0882 26.3319 32.0882 26.2305C32.0882 26.1292 32.0605 26.0462 32.0267 26.0462C31.9929 26.0462 31.9653 26.0186 31.9653 25.9848C31.9653 25.9508 32.1274 25.9234 32.3288 25.9234C32.5594 25.9234 32.7053 25.8953 32.7281 25.8466C32.7567 25.7852 32.7711 25.7852 32.7997 25.8466C32.8421 25.9374 33.1939 25.9511 33.1939 25.8619C33.1939 25.8282 33.3298 25.8005 33.4959 25.8005C33.6775 25.8005 33.8122 25.7699 33.8338 25.7237C33.8624 25.6623 33.8768 25.6623 33.9054 25.7237C33.9479 25.8148 34.1768 25.8277 34.1768 25.7391C34.1768 25.7053 34.285 25.6777 34.4174 25.6777C34.5523 25.6777 34.6716 25.6439 34.6892 25.6009C34.7126 25.5429 34.7376 25.5466 34.7911 25.6162C34.8445 25.6858 34.8695 25.6896 34.893 25.6316C34.9103 25.589 35.0289 25.5548 35.1596 25.5548C35.2904 25.5548 35.409 25.5206 35.4263 25.478C35.4498 25.42 35.4748 25.4238 35.5282 25.4934C35.5817 25.563 35.6067 25.5667 35.6301 25.5087C35.6502 25.4595 35.7916 25.4319 36.0248 25.4319C36.2261 25.4319 36.3882 25.4045 36.3882 25.3705C36.3882 25.3367 36.4712 25.3091 36.5725 25.3091C36.6739 25.3091 36.7568 25.3367 36.7568 25.3705Z" fill="white"/>
</svg>
