<svg width="76" height="56" viewBox="0 0 76 56" fill="none" xmlns="http://www.w3.org/2000/svg">
<g filter="url(#filter0_d)">
<path fill-rule="evenodd" clip-rule="evenodd" d="M8.78065 1.22988C5.13303 1.97165 2.28761 4.54469 0.992454 8.27239C-0.31526 12.0338 -0.336453 36.6049 0.963411 40.9794C3.23032 48.6074 7.25786 49.4458 39.6069 49.0235C71.1145 48.6121 69.8272 49.6428 69.8272 24.837C69.8272 10.0299 69.6985 8.52671 68.2181 5.99841C65.291 1.00303 64.7423 0.911196 36.8596 0.762057C23.0446 0.687488 10.4094 0.898637 8.78065 1.22988ZM39.4107 20.4924C42.9727 22.5254 45.8864 24.4398 45.8864 24.7452C45.8864 25.2962 29.2606 35.0413 28.321 35.0413C28.0526 35.0413 27.8328 30.2437 27.8328 24.3802V13.7199L30.3838 15.2576C31.7873 16.103 35.8486 18.4586 39.4107 20.4924Z" fill="white"/>
</g>
<defs>
<filter id="filter0_d" x="0" y="0.74707" width="75.8345" height="54.365" filterUnits="userSpaceOnUse" color-interpolation-filters="sRGB">
<feFlood flood-opacity="0" result="BackgroundImageFix"/>
<feColorMatrix in="SourceAlpha" type="matrix" values="0 0 0 0 0 0 0 0 0 0 0 0 0 0 0 0 0 0 127 0"/>
<feOffset dx="3" dy="3"/>
<feGaussianBlur stdDeviation="1.5"/>
<feColorMatrix type="matrix" values="0 0 0 0 0 0 0 0 0 0 0 0 0 0 0 0 0 0 0.55 0"/>
<feBlend mode="normal" in2="BackgroundImageFix" result="effect1_dropShadow"/>
<feBlend mode="normal" in="SourceGraphic" in2="effect1_dropShadow" result="shape"/>
</filter>
</defs>
</svg>
